<?xml version="1.0" standalone="no"?>
<!DOCTYPE svg PUBLIC "-//W3C//DTD SVG 1.1//EN" "http://www.w3.org/Graphics/SVG/1.1/DTD/svg11.dtd" >
<svg xmlns="http://www.w3.org/2000/svg">
<metadata>Generated by IcoMoon</metadata>
<defs>
<font id="gripz-icons" horiz-adv-x="1024">
<font-face units-per-em="1024" ascent="960" descent="-64" />
<missing-glyph horiz-adv-x="1024" />
<glyph unicode="&#x20;" horiz-adv-x="512" d="" />
<glyph unicode="&#xe900;" glyph-name="chat" d="M1023.962 539.738c0 196.23-190.371 355.872-424.355 355.872-233.99 0-424.356-159.644-424.356-355.872s190.366-355.872 424.356-355.872c19.674 0 39.418 1.139 58.826 3.389 90.125-57.254 156.656-88.592 197.894-93.171 1.434-0.157 2.877-0.237 4.291-0.237 13.245 0 25.504 6.602 32.803 17.667 8.16 12.384 8.694 28.090 1.424 40.915-0.336 0.611-32.16 58.672-22.979 114.131 96.816 67.75 152.096 166.762 152.096 273.178zM484.362 485.99c-34.72 0-62.861 28.144-62.861 62.861s28.141 62.861 62.861 62.861c34.714 0 62.864-28.144 62.864-62.861s-28.15-62.861-62.864-62.861zM714.864 485.99c-34.726 0-62.87 28.144-62.87 62.861s28.144 62.861 62.87 62.861c34.714 0 62.858-28.144 62.858-62.861s-28.147-62.861-62.858-62.861zM264.94 255.014c-42.106 34.864-75.297 75.674-98.639 121.293-24.611 48.096-37.088 99.261-37.088 152.067s12.479 103.968 37.088 152.065c1.884 3.681 3.857 7.317 5.867 10.936-103.934-59.545-172.168-158.927-172.168-271.273 0-100.931 54.371-194.512 149.357-257.462 17.543-68.97-23.167-141.936-23.597-142.682-2.426-4.278-2.247-9.558 0.46-13.664 2.439-3.702 6.559-5.891 10.931-5.891 0.484 0 0.965 0.029 1.454 0.080 47.522 5.28 131.207 53.578 194.605 94.304 21.354-2.896 43.178-4.362 64.957-4.362 83.283 0 160.662 21.296 224.653 57.638-14.298-1.146-28.698-1.754-43.053-1.754-118.355 0-230.16 38.605-314.827 108.704z" />
<glyph unicode="&#xe901;" glyph-name="envelop" d="M591.494 325.626c-24.509-15.51-52.086-23.363-79.661-23.363-27.194 0-54.384 7.469-77.939 22.595l-393.141 264.65c-6.511 4.403-15.128-0.192-15.128-8.045v-473.952c0-26.81 21.831-48.64 48.64-48.64h875.521c26.81 0 48.64 21.83 48.64 48.64v473.952c0 7.853-8.618 12.448-15.13 8.045l-391.802-263.882zM486.938 406.259c14.746-9.382 35.235-9.382 51.13 0.765l456.144 307.161c2.682 1.723 4.214 4.787 4.214 8.043v66.258c0 26.809-21.83 48.64-48.64 48.64h-875.521c-26.809 0-48.64-21.831-48.64-48.64v-66.258c0-3.255 1.532-6.319 4.213-8.043l457.1-307.925z" />
<glyph unicode="&#xe902;" glyph-name="location-3" d="M768.019 830.359c-37.779 34.428-82.051 60.966-130.221 78.060s-99.267 24.4-150.298 21.488c-51.027-2.912-100.963-15.981-146.877-38.443s-86.879-53.864-120.498-92.364c-33.619-38.501-59.212-83.326-75.281-131.847s-22.289-99.762-18.296-150.718 18.119-100.605 41.549-146.032c23.43-45.424 55.694-85.715 94.899-118.512 89.631-74.518 164.52-165.155 220.799-267.232 2.752-5.082 6.829-9.325 11.798-12.278s10.646-4.502 16.426-4.49c5.776 0.003 11.443 1.571 16.403 4.534 4.957 2.963 9.021 7.213 11.757 12.298l2.624 4.928c56.685 100.842 131.421 190.403 220.48 264.224 41.274 35.667 74.467 79.728 97.363 129.238s34.973 103.334 35.421 157.882c0.448 54.547-10.742 108.564-32.822 158.445s-54.544 94.479-95.226 130.82zM512.019 383.99c-31.645 0-62.579 9.386-88.89 26.966-26.314 17.581-46.819 42.57-58.931 71.805-12.109 29.235-15.277 61.408-9.104 92.445s21.411 59.546 43.789 81.922c22.378 22.376 50.886 37.615 81.923 43.788s63.206 3.005 92.445-9.105c29.235-12.11 54.224-32.618 71.805-58.929 17.581-26.314 26.963-57.248 26.963-88.893-0.048-42.419-16.922-83.085-46.918-113.078-29.994-29.997-70.662-46.87-113.082-46.922z" />
<glyph unicode="&#xe903;" glyph-name="comment" d="M329.766 408.789c0 3.652 0.72 7.27 2.119 10.645s3.448 6.438 6.032 9.024c2.584 2.581 5.651 4.629 9.027 6.029 3.375 1.395 6.993 2.112 10.647 2.112h380.138c7.377 0 14.451-2.931 19.665-8.145 5.218-5.214 8.145-12.288 8.145-19.665 0-7.373-2.927-14.447-8.145-19.661-5.214-5.218-12.288-8.145-19.665-8.145h-380.138c-3.652-0.004-7.269 0.713-10.643 2.112-3.375 1.395-6.441 3.443-9.024 6.025s-4.632 5.645-6.030 9.020c-1.398 3.375-2.117 6.989-2.117 10.641l-0.010 0.009zM329.766 251.187v0.013c0 3.652 0.719 7.27 2.117 10.65 1.398 3.375 3.447 6.443 6.031 9.024s5.652 4.634 9.027 6.029c3.376 1.399 6.994 2.116 10.648 2.116h523.289c7.373 0 14.447-2.931 19.665-8.145 5.214-5.214 8.145-12.288 8.145-19.665s-2.931-14.447-8.145-19.665c-5.218-5.214-12.292-8.145-19.665-8.145h-523.289c-3.652 0-7.269 0.717-10.643 2.108-3.375 1.395-6.442 3.443-9.026 6.025s-4.634 5.645-6.033 9.015c-1.399 3.375-2.12 6.989-2.122 10.641zM989.939 594.62h-741.419c-1.398-0.018-2.734-0.581-3.723-1.57s-1.552-2.324-1.569-3.722v-518.672c0.018-1.399 0.582-2.735 1.57-3.725 0.989-0.986 2.324-1.549 3.722-1.566h532.506c19.337 0.192 38.238-5.769 53.965-17.024l160.239-112.341v653.328c-0.021 1.397-0.585 2.731-1.574 3.718-0.986 0.988-2.321 1.552-3.716 1.574zM28.75 306.671c0.022-1.395 0.587-2.726 1.575-3.712s2.322-1.549 3.717-1.57h153.568v287.939c0.020 16.148 6.443 31.63 17.862 43.048s26.9 17.842 43.049 17.862h532.22v175.108c-0.013 1.397-0.572 2.734-1.562 3.723-0.986 0.989-2.321 1.553-3.721 1.569h-532.482c-19.341-0.198-38.243 5.768-53.966 17.034l-160.26 112.328v-653.329z" />
<glyph unicode="&#xe904;" glyph-name="quote-2" d="M870.84 523.402h-280.090v-458.386h433.303v469.376l-256.876 263.515-59.894-61.441 176.484-181.043c5.233-5.366 6.794-13.427 3.963-20.444-2.829-7.014-9.5-11.576-16.891-11.576zM0 64h433.303v469.379l-256.874 263.513-59.893-61.441 176.492-181.044c5.23-5.366 6.794-13.427 3.963-20.442-2.829-7.017-9.5-11.579-16.893-11.579h-280.097v-458.386z" />
<glyph unicode="&#xe905;" glyph-name="arrow-long-2" d="M866.287 446.034l-299.741 299.74-128.924 5.642 261.799-261.796h-579.455l0.141-87.312 579.314 0.141-261.799-261.797 128.924 5.643 299.742 299.739z" />
<glyph unicode="&#xe906;" glyph-name="window" d="M0 960h455.13v-455.13h-455.13v455.13zM0 391.096h455.13v-455.13h-455.13v455.13zM568.866 960h455.13v-455.13h-455.13v455.13zM568.866 391.096h455.13v-455.13h-455.13v455.13z" />
<glyph unicode="&#xe907;" glyph-name="calendar" d="M896.444 890.179h-86.050v-86.051c0-17.21-14.341-28.684-28.687-28.684-14.341 0-28.682 11.474-28.682 28.684v86.051h-458.935v-86.051c0-17.21-14.342-28.684-28.684-28.684s-28.684 11.474-28.684 28.684v86.051h-86.050c-43.025 0-74.577-37.289-74.577-86.051v-103.261h917.872v103.261c0 48.762-51.629 86.051-97.524 86.051zM76.095 640.632v-524.906c0-51.634 31.552-86.050 77.445-86.050h745.77c45.895 0 97.524 37.288 97.524 86.050v524.906h-920.739zM331.378 158.749h-68.84c-11.474 0-22.947 8.606-22.947 22.947v71.709c0 11.474 8.605 22.947 22.947 22.947h71.708c11.474 0 22.947-8.606 22.947-22.947v-71.709c-2.868-14.341-11.473-22.947-25.815-22.947zM331.378 416.9h-68.84c-11.474 0-22.947 8.606-22.947 22.947v71.71c0 11.473 8.605 22.947 22.947 22.947h71.708c11.474 0 22.947-8.605 22.947-22.947v-71.71c-2.868-14.341-11.473-22.947-25.815-22.947zM560.845 158.749h-71.709c-11.472 0-22.945 8.606-22.945 22.947v71.709c0 11.474 8.605 22.947 22.945 22.947h71.709c11.474 0 22.947-8.606 22.947-22.947v-71.709c0-14.341-8.606-22.947-22.947-22.947zM560.845 416.9h-71.709c-11.472 0-22.945 8.606-22.945 22.947v71.71c0 11.473 8.605 22.947 22.945 22.947h71.709c11.474 0 22.947-8.605 22.947-22.947v-71.71c0-14.341-8.606-22.947-22.947-22.947zM790.313 158.749h-71.709c-11.474 0-22.947 8.606-22.947 22.947v71.709c0 11.474 8.606 22.947 22.947 22.947h71.709c11.474 0 22.947-8.606 22.947-22.947v-71.709c0-14.341-8.606-22.947-22.947-22.947zM790.313 416.9h-71.709c-11.474 0-22.947 8.606-22.947 22.947v71.71c0 11.473 8.606 22.947 22.947 22.947h71.709c11.474 0 22.947-8.605 22.947-22.947v-71.71c0-14.341-8.606-22.947-22.947-22.947z" />
<glyph unicode="&#xe908;" glyph-name="chart" d="M704.132 420.957c-3.974-15.175-10.074-29.711-18.13-43.169l215.83-215.83c62.074 73.153 100.328 163.513 109.641 258.999h-307.341zM579.808 631.604c29.959-7.689 57.3-23.282 79.17-45.151 21.865-21.869 37.459-49.211 45.149-79.167h307.341c-9.723 111.216-58.324 215.45-137.265 294.392-78.946 78.942-183.179 127.544-294.395 137.269v-307.342zM622.904 316.923c-25.971-16.087-55.788-24.883-86.333-25.468-41.394 0.853-81.107 16.55-111.896 44.232s-50.606 65.507-55.838 106.579c-5.232 41.071 4.469 82.656 27.335 117.173s57.374 59.669 97.236 70.87v308.637c-74.353-6.33-146.166-30.094-209.616-69.366s-116.752-92.944-155.582-156.666c-38.83-63.722-62.095-135.698-67.908-210.091-5.813-74.392 5.988-149.11 34.448-218.089 28.46-68.983 72.777-130.282 129.357-178.932 56.58-48.655 123.829-83.285 196.295-101.088s148.105-18.276 220.79-1.38c72.684 16.896 140.361 50.683 197.544 98.621l-215.83 214.967z" />
<glyph unicode="&#xe909;" glyph-name="location-2" d="M396.188 321.141c58.327-77.317 115.636-142.424 140.222-169.555 24.586 27.131 81.896 92.238 140.22 169.555 0.512 1.019 1.36 1.868 2.038 2.716 78.843 105.292 158.535 232.458 158.535 317.066 0 165.825-134.968 300.791-300.793 300.791s-300.791-134.966-300.791-300.791c0-84.608 79.691-211.774 158.534-317.066 0.678-0.848 1.526-1.697 2.035-2.716zM536.41 785.045c79.35 0 144.121-64.77 144.121-144.122s-64.77-144.122-144.121-144.122c-79.352 0-144.122 64.77-144.122 144.122s64.77 144.122 144.122 144.122zM922.683-7.797l-102.41 302.655h-120.891c-73.757-97.324-144.462-173.285-150.567-179.897-3.223-3.389-7.631-5.427-12.376-5.427-4.749 0-9.157 2.038-12.381 5.427-6.105 6.612-76.807 82.573-150.564 179.897h-120.893l-102.411-302.655h772.492z" />
<glyph unicode="&#xe90a;" glyph-name="budget" d="M390.289 727.983h292.641l92.687 171.108c2.979 5.505 4.135 11.816 3.291 18.019s-3.638 11.978-7.982 16.488c-4.34 4.51-10.006 7.521-16.174 8.598s-12.517 0.163-18.13-2.608c-66.326-32.748-124.328-18.773-191.488-2.6-66.412 15.997-141.676 34.127-231.031 4.114-4.078-1.37-7.807-3.616-10.926-6.579s-5.551-6.574-7.127-10.577c-1.576-4.003-2.257-8.302-1.996-12.597s1.459-8.479 3.509-12.262l92.726-171.105zM713.743 657.011c-3.833 3.971-7.695 7.969-11.581 11.995h-331.191c-3.879-4.021-7.739-8.019-11.58-11.995-59.8-61.871-116.287-120.315-158.335-185.732-48.346-75.225-70.865-148.968-70.865-232.077 0-96.432 51.994-170.052 150.355-212.904 84.129-36.649 185.648-44.344 255.997-44.344 70.866 0 172.949 7.695 256.829 44.359 97.855 42.764 149.582 116.385 149.582 212.89 0 83.11-22.518 156.852-70.866 232.077-42.047 65.418-98.533 123.861-158.345 185.732zM542.608 383.81c21.124-4.447 42.969-9.045 61.703-21.392 24.347-16.048 36.688-40.853 36.688-73.718 0-43.393-31.685-80.111-74.967-91.804v-15.219c0-7.821-3.111-15.326-8.641-20.855s-13.034-8.641-20.855-8.641c-7.826 0-15.326 3.111-20.86 8.641-5.53 5.53-8.636 13.034-8.636 20.855v15.219c-43.282 11.693-74.97 48.411-74.97 91.804 0 7.821 3.108 15.326 8.639 20.855s13.034 8.641 20.857 8.641c7.823 0 15.325-3.111 20.857-8.641s8.638-13.034 8.638-20.855c0-20.256 20.402-36.723 45.475-36.723s45.47 16.472 45.47 36.723c0 22.811-7.227 28.058-51.546 37.381-21.124 4.447-42.968 9.045-61.702 21.392-24.346 16.048-36.689 40.853-36.689 73.718 0 43.418 31.688 80.158 74.97 91.858v15.163c0 7.823 3.106 15.325 8.636 20.857 5.534 5.532 13.034 8.639 20.86 8.639 7.821 0 15.326-3.108 20.855-8.639s8.641-13.034 8.641-20.857v-15.157c43.281-11.7 74.967-48.437 74.967-91.854 0-7.826-3.106-15.326-8.636-20.86-5.534-5.53-13.034-8.636-20.86-8.636-7.821 0-15.326 3.106-20.855 8.636-5.53 5.534-8.641 13.034-8.641 20.86 0 20.275-20.397 36.771-45.47 36.771s-45.475-16.501-45.475-36.771c0.010-22.825 7.236-28.067 51.556-37.391h-0.010z" />
<glyph unicode="&#xe90b;" glyph-name="user" d="M256.010 766.961c0 38.18 11.322 75.501 32.533 107.246s51.36 56.487 86.633 71.098c35.273 14.611 74.087 18.433 111.533 10.985 37.448-7.448 71.84-25.834 98.839-52.831 26.995-26.997 45.383-61.393 52.829-98.839 7.451-37.446 3.628-76.259-10.981-111.533-14.614-35.273-39.356-65.421-71.1-86.633s-69.068-32.533-107.247-32.533c-51.197 0-100.297 20.338-136.499 56.54s-56.54 85.302-56.54 136.499zM598.221 172.403c-12.785 11.922-21.899 27.253-26.258 44.183s-3.789 34.753 1.643 51.371c5.286 16.847 15.267 31.837 28.774 43.203 13.507 11.371 29.974 18.651 47.475 20.982l60.328 8.689c0 0 9.65 0.917 12.546 6.754l19.305 38.61c1.546 2.794 2.219 5.988 1.931 9.167-0.605 2.721-1.941 5.222-3.862 7.241-25.381 25.522-55.871 45.378-89.478 58.27-33.602 12.895-69.554 18.528-105.492 16.53h-193.039c-195.934 0-265.428-143.331-265.428-266.391 0-110.036 58.394-167.946 168.909-167.946h366.29c7.724 0 12.644 5.793 14.96 18.339l9.655 55.496c0.517 2.365 0.385 4.823-0.38 7.114-0.766 2.297-2.136 4.34-3.964 5.92l-43.915 42.467zM1021.313 224.573c2.853 2.745 4.871 6.242 5.822 10.089s0.795 7.885-0.453 11.644c-1.248 3.76-3.53 7.090-6.593 9.606-3.057 2.516-6.768 4.116-10.698 4.613l-96.134 13.658c-3.423 0.473-6.685 1.77-9.499 3.779s-5.105 4.671-6.666 7.753l-41.696 82.622c-1.955 3.789-4.915 6.963-8.553 9.182s-7.817 3.389-12.078 3.389c-4.262 0-8.441-1.17-12.083-3.389-3.638-2.219-6.597-5.393-8.548-9.182l-41.648-82.622c-1.57-3.082-3.857-5.739-6.671-7.748s-6.076-3.306-9.499-3.784l-96.134-13.658c-3.94-0.478-7.66-2.068-10.732-4.584s-5.369-5.851-6.617-9.616c-1.248-3.769-1.399-7.817-0.439-11.664 0.961-3.852 2.994-7.353 5.871-10.089l69.491-66.311c2.506-2.365 4.384-5.31 5.471-8.577s1.346-6.754 0.756-10.147l-15.877-90.678c-0.668-4.203-0.156-8.514 1.487-12.439s4.35-7.314 7.817-9.787c3.467-2.472 7.553-3.93 11.8-4.208s8.489 0.639 12.244 2.638l83.344 42.857c3.087 1.595 6.515 2.428 9.991 2.428s6.9-0.834 9.986-2.428l83.393-42.901c3.755-1.989 7.992-2.896 12.229-2.609 4.242 0.283 8.319 1.741 11.776 4.208 3.457 2.472 6.159 5.856 7.802 9.777 1.638 3.916 2.16 8.216 1.492 12.415l-15.779 90.775c-0.585 3.389-0.332 6.871 0.746 10.133 1.078 3.267 2.945 6.217 5.432 8.592l69.447 66.263z" />
<glyph unicode="&#xe90c;" glyph-name="electric" d="M512 358.3c-21.54 0-38.999 17.459-38.999 38.999v337.351c0 21.54 17.459 39 38.999 39s38.999-17.46 38.999-39v-337.351c0-21.54-17.459-38.999-38.999-38.999zM770.301 20.744c18.422 11.162 24.31 35.141 13.151 53.565-11.162 18.424-35.144 24.312-53.565 13.151-65.505-39.685-140.851-60.659-217.887-60.659-232.251 0-421.2 188.948-421.2 421.199s188.949 421.2 421.2 421.2c232.251 0 421.199-188.949 421.199-421.2 0-83.049-24.696-163.886-71.419-233.774-11.973-17.907-7.16-42.127 10.744-54.095 17.91-11.976 42.127-7.16 54.095 10.744 55.334 82.76 84.58 178.591 84.58 277.125 0 133.34-51.927 258.701-146.212 352.989-94.287 94.285-219.648 146.211-352.988 146.211s-258.701-51.927-352.989-146.211c-94.285-94.288-146.211-219.649-146.211-352.989s51.927-258.701 146.211-352.988c94.288-94.285 219.649-146.212 352.989-146.212 91.284 0 180.603 24.878 258.301 71.944zM835.699 448c0 109.719-55.424 211.574-148.26 272.462-18.007 11.817-42.186 6.79-53.998-11.222-11.814-18.011-6.789-42.188 11.22-54 70.779-46.423 113.039-123.896 113.039-207.24 0-136.556-111.096-247.649-247.652-247.649-136.553 0-247.649 111.094-247.649 247.649 0 83.343 42.258 160.817 113.039 207.237 18.010 11.814 23.035 35.991 11.223 54-11.814 18.010-35.988 23.035-54.001 11.222-92.837-60.886-148.262-162.741-148.262-272.46 0-179.564 146.086-325.65 325.649-325.65s325.65 146.086 325.65 325.65z" />
<glyph unicode="&#xe90d;" glyph-name="radiation" d="M998.326 515.118c-4.828 76.982-28.25 152.599-67.727 218.685-38.42 64.311-92.032 119.753-155.039 160.339-8.696 5.601-19.3 7.416-29.361 5.023-10.066-2.39-18.719-8.78-23.964-17.695l-173.609-294.942c-11.505 3.914-23.813 6.070-36.623 6.070-13.425 0-26.307-2.35-38.28-6.63l-174.216 294.138c-5.281 8.917-13.975 15.291-24.069 17.642-10.092 2.358-20.711 0.484-29.392-5.183-62.36-40.687-115.395-96.015-153.37-160.003-39.034-65.77-62.2-140.962-67.002-217.445-0.657-10.473 3.046-20.746 10.228-28.396 7.182-7.644 17.208-11.983 27.698-11.983h334.5c1.116-33.377 16.632-63.155 40.54-83.308l-162.532-289.731c-5.066-9.037-6.226-19.745-3.21-29.655 3.016-9.907 9.943-18.158 19.185-22.838 69.957-35.436 143.949-53.402 219.917-53.402 76.797 0 151.465 18.304 221.926 54.403 9.208 4.716 16.092 12.982 19.067 22.889 2.975 9.905 1.784 20.598-3.3 29.606l-163.387 289.549c24.276 20.92 39.695 51.855 39.695 86.344 0 22.098-6.341 42.734-17.27 60.224l157.952 268.343c80.422-63.618 134.625-155.555 151.214-256.426h-179.796c-20.989 0-38.001-17.011-38.001-38.001 0-20.987 17.011-37.998 38.001-37.998h222.3c10.488 0 20.516 4.337 27.697 11.983 7.183 7.649 10.885 17.923 10.227 28.396zM550.001 478.597c0-16.596-10.711-30.705-25.569-35.871-0.73-0.207-1.452-0.43-2.173-0.684-3.269-0.919-6.7-1.446-10.258-1.446-20.954 0-38.001 17.047-38.001 38.001s17.047 38.001 38.001 38.001c20.954 0 38.001-17.047 38.001-38.001zM255.332 805.559l150.925-254.821h-300.147c16.462 99.93 69.943 191.273 149.222 254.821zM663.188 101.361c-48.758-19.633-99.451-29.558-151.188-29.558-51.018 0-101.092 9.69-149.332 28.849l148.078 263.977c0.42-0.003 0.835-0.031 1.254-0.031 0.876 0 1.738 0.046 2.609 0.067l148.58-263.304z" />
<glyph unicode="&#xe90e;" glyph-name="house-2" d="M987.182 425.81c-7.411-7.363-17.101-11.044-26.78-11.044-9.769 0-19.533 3.743-26.959 11.218l-30.042 30.244v-138.358c0-20.987-17.014-38.001-38.001-38.001s-38.001 17.014-38.001 38.001v214.858l-289.001 290.909c-14.185 12.152-35.067 12.198-49.3 0.102l-292.552-291.976c0.009-0.366 0.055-0.724 0.055-1.093v-402.801c0-41.907 34.094-75.999 76-75.999h478.799c41.905 0 75.999 34.092 75.999 75.999 0 20.987 17.014 38.001 38.001 38.001s38.001-17.014 38.001-38.001c0-83.812-68.188-152-152-152h-478.799c-83.813 0-152 68.188-152 152v328.1l-30.157-30.095c-14.856-14.825-38.916-14.804-53.741 0.051s-14.801 38.915 0.053 53.74l399.549 398.763c0.512 0.511 1.037 1.003 1.577 1.484 43.397 38.638 108.731 38.503 151.964-0.317 0.538-0.483 1.062-0.982 1.572-1.494l395.937-398.551c14.792-14.889 14.715-38.948-0.174-53.74zM437.901 182.968c-0.028-5.975 5.156-9.526 11.799-9.498 4.667 0.018 9.595 1.889 12.846 5.128l179.382 205.22c15.575 18.004 3 46.152-20.902 46.152h-88l69.532 112.1h-134.874l-87.56-156.119c-14.303-25.503 4.268-56.681 33.667-56.681h76.337l-51.064-141.532c-0.794-1.738-1.157-3.331-1.162-4.769z" />
<glyph unicode="&#xe90f;" glyph-name="lighting" d="M90.8 678.1c0-21.54-17.46-38.999-39-38.999s-39 17.459-39 38.999c0 21.54 17.46 39.001 39 39.001s39-17.461 39-39.001zM51.8 502.602c-21.54 0-39-17.462-39-39.002s17.46-38.999 39-38.999c21.54 0 39 17.459 39 38.999s-17.46 39.002-39 39.002zM145.4 319.301c-21.54 0-39-17.459-39-38.999s17.46-39.002 39-39.002c21.54 0 39 17.462 39 39.002s-17.46 38.999-39 38.999zM145.4 834.101c21.54 0 39 17.46 39 39s-17.46 39-39 39c-21.54 0-39-17.46-39-39s17.46-39 39-39zM972.201 717.101c-21.54 0-39.002-17.461-39.002-39.001s17.462-38.999 39.002-38.999c21.54 0 38.999 17.459 38.999 38.999s-17.459 39.001-38.999 39.001zM972.201 502.602c-21.54 0-39.002-17.462-39.002-39.002s17.462-38.999 39.002-38.999c21.54 0 38.999 17.459 38.999 38.999s-17.459 39.002-38.999 39.002zM878.6 319.301c-21.54 0-38.999-17.459-38.999-38.999s17.459-39.002 38.999-39.002c21.54 0 39.002 17.462 39.002 39.002s-17.462 38.999-39.002 38.999zM878.6 912.101c-21.54 0-38.999-17.46-38.999-39s17.459-39 38.999-39c21.54 0 39.002 17.46 39.002 39s-17.462 39-39.002 39zM803.919 397.868c-19.069 10.015-26.414 33.592-16.397 52.662 18.642 35.505 27.702 74.691 27.702 119.8 0 2.813 0.3 5.563 0.865 8.207-2.068 76.959-33.211 148.977-88.223 203.585-56.622 56.207-131.551 87.079-211.197 87.079-0.763 0-1.518-0.002-2.281-0.008-0.192-0.002-0.384-0.002-0.576 0-81.303 0.647-157.834-30.713-215.718-88.169-56.969-56.552-88.344-131.378-88.344-210.694 0-117.069 63.645-176.799 125.195-234.563 37.996-35.656 74.337-69.78 88.694-113.969h177.705c12.685 38.986 42.409 70.075 74.632 100.723 15.606 14.843 40.292 14.223 55.137-1.385 14.843-15.606 14.223-40.292-1.385-55.135-32.914-31.304-52.355-53.755-56.154-76.792 0.166-1.464 0.274-2.949 0.274-4.46v-118.948c0-64.515-52.488-117.002-117-117.002h-87.752c-64.512 0-117 52.488-117 117.002v115.049c0 30.31-26.801 57.001-70.531 98.040-63.225 59.338-149.817 140.603-149.817 291.438 0 100.26 39.56 194.745 111.394 266.051 72.681 72.146 168.963 111.482 270.956 110.813 101.432 0.614 196.762-38.284 268.718-109.715 71.826-71.298 111.383-166.172 111.383-267.149 0-3.146-0.374-6.205-1.078-9.134-1.198-54.292-13.187-102.446-36.544-146.929-10.012-19.067-33.587-26.414-52.659-16.399zM595.85 65.802v77.998h-165.75v-77.998c0-21.507 17.495-39.002 38.999-39.002h87.752c21.504 0 38.999 17.495 38.999 39.002zM433.999 381.701c-0.028-6.134 5.294-9.777 12.111-9.751 4.787 0.020 9.846 1.94 13.184 5.263l184.102 210.621c15.985 18.478 3.080 47.365-21.453 47.365h-90.317l71.363 115.051h-138.422l-89.861-160.225c-14.684-26.179 4.375-58.176 34.55-58.176h78.344l-52.406-145.257c-0.817-1.782-1.188-3.415-1.196-4.892z" />
<glyph unicode="&#xe910;" glyph-name="home" d="M887.893 668.355l-332.56 255.601c-13.325 8.671-28.88 13.287-44.777 13.287s-31.453-4.616-44.777-13.287l-329.762-255.601c-9.937-7.652-17.999-17.468-23.576-28.702s-8.52-23.59-8.607-36.131v-494.876c0.122-21.612 8.761-42.303 24.042-57.583s35.971-23.922 57.582-24.041h652.993c21.612 0.119 42.303 8.761 57.583 24.041s23.922 35.971 24.041 57.583v496.275c-0.296 12.304-3.339 24.385-8.909 35.361s-13.517 20.567-23.273 28.073zM616.903 96.984h-209.894v244.873c0 3.095 1.229 6.059 3.416 8.249 2.187 2.185 5.152 3.413 8.245 3.413h186.571c3.089 0 6.059-1.229 8.243-3.413 2.19-2.19 3.419-5.154 3.419-8.249v-244.873zM850.113 109.113c0-3.22-1.28-6.303-3.55-8.579-2.276-2.27-5.359-3.55-8.579-3.55h-151.12v244.873c-0.125 21.612-8.761 42.303-24.041 57.583s-35.971 23.92-57.583 24.042h-186.571c-21.61-0.122-42.301-8.761-57.582-24.042s-23.92-35.971-24.043-57.583v-244.873h-151.588c-3.092 0-6.059 1.229-8.245 3.413-2.187 2.19-3.415 5.154-3.415 8.249v496.275c0.034 1.804 0.471 3.578 1.278 5.191s1.964 3.028 3.387 4.138l326.497 250.47c2.43 0.754 5.032 0.754 7.463 0l330.228-252.336c1.422-1.11 2.583-2.523 3.385-4.137 0.808-1.614 1.246-3.387 1.28-5.191l2.799-493.943z" />
<glyph unicode="&#xe911;" glyph-name="after-icon" horiz-adv-x="1088" d="M391.945 836.331l359.677-359.481c15.878-15.882 15.878-41.643 0-57.525l-359.677-359.677c-25.567-25.562-69.533-7.552-69.533 28.864v719.153c0 36.22 43.967 54.426 69.533 28.666z" />
<glyph unicode="&#xe912;" glyph-name="before-icon" horiz-adv-x="1088" d="M694.746 836.362l-359.677-359.482c-15.882-15.882-15.882-41.642 0-57.524l359.677-359.676c25.562-25.568 69.53-7.552 69.53 28.858v719.159c0 36.22-43.968 54.426-69.53 28.666z" />
<glyph unicode="&#xe913;" glyph-name="marquee-icon" d="M768.965 852.712c-137.374 138.908-364.793 145.907-509.871 3.56-142.147-139.468-141.526-359.001-16.397-498.705 37.705-42.096 58.469-95.549 58.469-150.51v-65.254c0-38.322 25.394-70.819 60.235-81.56v-34.894c0-49.267 34.766-89.349 77.502-89.349h146.173c42.734 0 77.502 40.083 77.502 89.349v34.894c34.84 10.744 60.235 43.238 60.235 81.56v65.254c0 54.962 20.767 108.415 58.474 150.515 125.714 140.366 123.895 357.403-12.323 495.141zM585.073-3.766h-146.172c-7.986 0-17.268 12.718-17.268 29.114v31.122h180.705v-31.122c0.003-16.396-9.279-29.114-17.265-29.114zM662.577 141.802c0-13.84-11.259-25.099-25.099-25.099h-250.98c-13.839 0-25.097 11.259-25.097 25.099v35.137h301.176v-35.137zM736.414 397.761c-40.728-45.474-65.791-101.606-72.189-160.585h-304.472c-6.401 58.976-31.46 115.11-72.188 160.583-50.032 55.855-77.286 127.97-76.743 203.062 1.196 165.090 137.239 300.822 304.798 298.92 164.068-1.932 297.545-137.029 297.545-301.153 0-74.249-27.256-145.572-76.75-200.828zM567.931 673.442l-51.65 30.992-117.721-196.201h120.47l-62.984-104.973 51.65-30.994 117.721 196.202h-120.47l62.984 104.973z" />
<glyph unicode="&#xe914;" glyph-name="marquee-icon-2" d="M0 383.101v129.8h204.319l165.859-21.634 12.019 26.441-134.61 100.958-144.225 146.629 91.343 88.939 144.226-144.225 103.361-132.206 26.441 12.019-21.634 165.859v204.319h129.801v-204.319l-21.631-165.859 26.444-12.019 103.361 132.206 144.225 144.225 91.341-88.939-144.225-146.629-134.61-100.958 12.021-26.441 165.86 21.634h204.316v-129.8h-204.316l-165.86 19.227-12.021-24.040 134.61-103.361 144.225-144.225-91.341-91.341-144.225 144.225-103.361 134.61-26.444-12.021 21.631-165.86v-204.316h-129.801v204.316l21.634 165.86-26.441 12.021-103.361-134.61-144.226-144.225-91.343 91.341 144.225 144.225 134.61 103.361-12.019 24.040-165.859-19.227h-204.319z" />
<glyph unicode="&#xe915;" glyph-name="maintenance" d="M984.891 181.671l-276.976 276.976c-3.371 3.371-6.99 6.427-10.809 9.178l72.933 72.933c65.38-11.625 133.263 9.332 180.631 56.697 61.181 61.184 77.239 154.719 39.963 232.752-8.688 18.181-32.779 22.297-47.015 8.064-17.351-17.349-2.207-2.629-87.342-84.539h-38.51v38.507c81.909 85.135 67.191 69.992 84.537 87.339 14.252 14.249 10.1 38.336-8.063 47.011-78.026 37.282-171.566 21.222-232.747-39.958-47.365-47.366-68.325-115.251-56.7-180.631l-72.117-72.118-23.169 23.169c-11.407 11.407-29.903 11.407-41.31 0l-20.655-20.655-148.426 148.425v70.524c0 12.574-8.044 23.734-19.971 27.711l-185.898 61.967c-10.494 3.497-22.070 0.767-29.894-7.057l-41.309-41.31c-7.824-7.824-10.555-19.396-7.057-29.892l61.967-185.897c3.977-11.927 15.139-19.973 27.711-19.973h70.522l148.425-148.426-20.655-20.658c-11.399-11.399-11.404-29.903 0-41.308l23.169-23.172-72.116-72.114c-65.381 11.622-133.266-9.335-180.632-56.7-79.725-79.724-79.725-209.448 0-289.172 79.723-79.724 209.446-79.729 289.175 0 47.365 47.365 68.325 115.251 56.7 180.631l72.93 72.933c2.751-3.818 5.81-7.44 9.178-10.811l276.979-276.973c34.167-34.167 89.764-34.169 123.931 0 46.53 46.527 49.050 49.050 82.621 82.621 34.169 34.161 34.169 89.759 0 123.926zM657.419 676.004c7.373 7.373 10.259 18.117 7.567 28.193-13.431 50.289 1.062 104.365 37.818 141.126 33.207 33.204 79.748 47.808 124.632 41.231l-59.928-62.29c-5.236-5.443-8.16-12.701-8.16-20.253v-79.492c0-16.132 13.078-29.21 29.211-29.21h79.489c7.553 0 14.81 2.925 20.251 8.161l62.292 59.932c6.575-44.887-8.025-91.427-41.229-124.632-36.759-36.756-90.834-51.251-141.126-37.818-10.078 2.689-20.817-0.191-28.19-7.561l-103.578-103.575c-26.328 11.156-45.856 34.614-51.626 63.458-2.215 11.062-3.867 22.744-12.703 37.454l85.28 85.275zM207.941 710.758c-5.478 5.478-12.907 8.555-20.654 8.555h-61.568l-49.601 148.798 15.78 15.779 148.798-49.599v-61.568c0-7.747 3.079-15.176 8.557-20.656l156.979-156.981-41.308-41.31-156.983 156.981zM366.627 219.969c-7.375-7.373-10.256-18.117-7.567-28.192 13.431-50.289-1.059-104.364-37.818-141.123-56.949-56.948-149.608-56.948-206.553 0-56.947 56.945-56.947 149.606 0 206.552 36.759 36.759 90.837 51.254 141.126 37.818 10.074-2.692 20.819 0.194 28.192 7.567l85.28 85.278c14.579-8.755 26.058-10.421 37.457-12.703 28.842-5.767 52.305-25.298 63.458-51.626l-103.575-103.57zM943.584 99.053l-20.658-20.658-268.83 268.83c-11.404 11.407-29.901 11.407-41.31 0-11.407-11.41-11.407-29.903 0-41.313l268.83-268.83-20.652-20.652c-11.396-11.393-29.925-11.388-41.316 0l-276.973 276.976c-7.34 7.343-7.887 14.428-9.9 24.476-11.601 58.002-56.573 102.974-114.575 114.575-10.027 2.005-17.128 2.549-24.474 9.898l-28.801 28.801 123.931 123.934 28.804-28.804c7.357-7.357 7.898-14.476 9.898-24.476 11.601-57.999 56.576-102.974 114.575-114.575 10.041-2.008 17.128-2.549 24.474-9.898l276.979-276.976c11.388-11.388 11.388-29.92 0-41.308zM279.94 215.894c-34.248 34.247-89.682 34.253-123.932 0-34.168-34.167-34.168-89.762 0-123.931 34.248-34.247 89.68-34.25 123.932 0 34.169 34.169 34.169 89.762 0 123.931zM238.627 133.274c-11.417-11.415-29.892-11.418-41.31 0-11.388 11.388-11.388 29.922 0 41.31 11.414 11.415 29.892 11.415 41.31 0 11.392-11.391 11.392-29.922 0-41.31z" />
<glyph unicode="&#xe916;" glyph-name="extensions" d="M268.8 819.2c0 77.528 63.272 140.8 140.8 140.8s140.8-63.272 140.8-140.8v-64h128c77.528 0 140.8-63.272 140.8-140.8v-128h64c77.528 0 140.8-63.272 140.8-140.8s-63.272-140.8-140.8-140.8h-64v-128c0-77.528-63.272-140.8-140.8-140.8h-166.4c-21.208 0-38.4 17.192-38.4 38.4v102.4c0 35.112-28.888 64-64 64s-64-28.888-64-64v-102.4c0-21.208-17.192-38.4-38.4-38.4h-166.4c-77.528 0-140.8 63.272-140.8 140.8v166.4c0 21.208 17.192 38.4 38.4 38.4h102.4c35.112 0 64 28.888 64 64s-28.888 64-64 64h-102.4c-21.208 0-38.4 17.192-38.4 38.4v166.4c0 77.528 63.272 140.8 140.8 140.8h128v64zM409.6 883.2c-35.112 0-64-28.888-64-64v-102.4c0-21.208-17.192-38.4-38.4-38.4h-166.4c-35.112 0-64-28.888-64-64v-128h64c77.528 0 140.8-63.272 140.8-140.8s-63.272-140.8-140.8-140.8h-64v-128c0-35.112 28.888-64 64-64h128v64c0 77.528 63.272 140.8 140.8 140.8s140.8-63.272 140.8-140.8v-64h128c35.112 0 64 28.888 64 64v166.4c0 21.208 17.192 38.4 38.4 38.4h102.4c35.112 0 64 28.888 64 64s-28.888 64-64 64h-102.4c-21.208 0-38.4 17.192-38.4 38.4v166.4c0 35.112-28.888 64-64 64h-166.4c-21.208 0-38.4 17.192-38.4 38.4v102.4c0 35.112-28.888 64-64 64z" />
<glyph unicode="&#xe917;" glyph-name="rebuild" d="M548.57 886.857h-423.713l10.714 10.714c14.286 14.286 14.286 37.429 0 51.714s-37.429 14.286-51.714 0l-73.143-73.143c-14.286-14.286-14.286-37.429 0-51.714l73.143-73.143c7.143-7.143 16.5-10.714 25.857-10.714s18.714 3.572 25.857 10.714c14.286 14.286 14.286 37.429 0 51.714l-10.714 10.714h423.713c221.823 0 402.286-180.465 402.286-402.285 0-221.823-180.464-402.286-402.286-402.286-221.82 0-402.285 180.464-402.285 402.286 0 20.194-16.375 36.57-36.571 36.57s-36.571-16.376-36.571-36.57c0-262.163 213.267-475.43 475.427-475.43 262.163 0 475.43 213.267 475.43 475.43 0 262.16-213.267 475.427-475.43 475.427zM220.678 337.947c-2.518-9.41-1.179-19.445 3.714-27.874l73.802-126.68c10.108-17.373 32.323-23.285 49.769-13.339l54.089 30.946c11.536-7.82 23.894-14.802 36.805-20.803v-61.34c0-20.194 16.373-36.57 36.57-36.57h146.286c20.197 0 36.57 16.376 36.57 36.57v61.34c12.91 6.001 25.269 12.983 36.805 20.803l54.089-30.946c17.446-9.965 39.661-4.034 49.769 13.339l73.803 126.68c4.891 8.429 6.23 18.464 3.713 27.874s-8.696 17.43-17.16 22.269l-53.625 30.712c0.59 6.877 0.876 13.697 0.876 20.502s-0.286 13.625-0.876 20.499l53.625 30.715c8.464 4.84 14.643 12.857 17.16 22.269 2.517 9.41 1.178 19.445-3.713 27.874l-73.803 126.68c-10.127 17.373-32.393 23.301-49.769 13.339l-54.089-30.965c-11.536 7.823-23.894 14.821-36.805 20.822v61.338c0 20.197-16.373 36.572-36.57 36.572h-146.286c-20.197 0-36.57-16.375-36.57-36.572v-61.338c-12.91-6.001-25.269-12.999-36.805-20.822l-54.089 30.965c-17.411 9.946-39.626 3.999-49.769-13.339l-73.802-126.68c-4.893-8.429-6.232-18.464-3.714-27.874 2.518-9.413 8.696-17.43 17.161-22.269l53.624-30.715c-0.587-6.874-0.873-13.695-0.873-20.499s0.286-13.625 0.873-20.502l-53.624-30.712c-8.464-4.84-14.643-12.859-17.161-22.269zM366.964 378.090c-2.18 11.679-3.234 22.59-3.234 33.339s1.054 21.66 3.234 33.339c2.838 15.285-4.303 30.696-17.804 38.411l-43.019 24.625 37.001 63.483 43.517-24.91c13.358-7.607 30.089-6.090 41.803 3.856 16.662 14.107 37.071 25.643 59.071 33.358 14.662 5.142 24.466 18.982 24.466 34.517v49.322h73.143v-49.322c0-15.535 9.803-29.375 24.463-34.517 22-7.715 42.41-19.251 59.071-33.358 11.714-9.946 28.429-11.463 41.803-3.856l43.517 24.91 37.001-63.483-43.019-24.625c-13.501-7.715-20.642-23.126-17.804-38.411 2.18-11.679 3.234-22.59 3.234-33.339s-1.054-21.66-3.234-33.339c-2.838-15.287 4.303-30.696 17.804-38.411l43.019-24.625-37.001-63.483-43.517 24.894c-13.374 7.623-30.054 6.106-41.803-3.84-16.662-14.107-37.090-25.643-59.071-33.358-14.659-5.142-24.463-18.982-24.463-34.517v-49.322h-73.143v49.322c0 15.535-9.803 29.375-24.466 34.517-21.981 7.715-42.41 19.251-59.071 33.358-11.768 9.946-28.446 11.463-41.803 3.84l-43.517-24.894-37.001 63.483 43.019 24.625c13.501 7.715 20.642 23.124 17.804 38.411zM548.57 301.714c60.5 0 109.714 49.214 109.714 109.714s-49.214 109.714-109.714 109.714c-60.5 0-109.716-49.214-109.716-109.714s49.217-109.714 109.716-109.714zM548.57 447.997c20.159 0 36.57-16.408 36.57-36.57 0-20.159-16.411-36.57-36.57-36.57-20.162 0-36.573 16.411-36.573 36.57 0 20.162 16.411 36.57 36.573 36.57z" />
<glyph unicode="&#xe918;" glyph-name="loading-2" d="M512 646.75c-12.432 0-24.355 4.938-33.146 13.729s-13.729 20.714-13.729 33.146v187.5c0 12.432 4.938 24.355 13.729 33.146s20.714 13.729 33.146 13.729c12.432 0 24.355-4.939 33.146-13.729s13.729-20.714 13.729-33.146v-187.5c0-12.432-4.938-24.355-13.729-33.146s-20.714-13.729-33.146-13.729zM512-32c-12.432 0-24.355 4.941-33.146 13.728-8.791 8.794-13.729 20.717-13.729 33.146v187.501c0 12.435 4.938 24.358 13.729 33.146 8.791 8.794 20.714 13.728 33.146 13.728s24.355-4.934 33.146-13.728c8.791-8.787 13.729-20.71 13.729-33.146v-187.501c0-12.429-4.938-24.352-13.729-33.146-8.791-8.787-20.714-13.728-33.146-13.728zM266.375 401.125h-187.5c-12.432 0-24.355 4.938-33.146 13.729s-13.729 20.714-13.729 33.146c0 12.432 4.939 24.355 13.729 33.146s20.714 13.729 33.146 13.729h187.5c12.432 0 24.355-4.938 33.146-13.729s13.729-20.714 13.729-33.146c0-12.432-4.938-24.355-13.729-33.146s-20.714-13.729-33.146-13.729zM945.126 401.125h-187.501c-12.435 0-24.358 4.938-33.146 13.729-8.794 8.791-13.728 20.714-13.728 33.146s4.934 24.355 13.728 33.146c8.787 8.791 20.71 13.729 33.146 13.729h187.501c12.429 0 24.352-4.938 33.146-13.729 8.787-8.791 13.728-20.714 13.728-33.146s-4.941-24.355-13.728-33.146c-8.794-8.791-20.717-13.729-33.146-13.729zM685.696 574.805c-9.261 0.017-18.317 2.778-26.010 7.936-7.699 5.158-13.69 12.48-17.229 21.043-3.537 8.563-4.458 17.981-2.646 27.066 1.814 9.085 6.275 17.43 12.828 23.98l132.486 132.543c4.301 4.564 9.478 8.218 15.219 10.746s11.93 3.877 18.202 3.97c6.266 0.092 12.493-1.075 18.304-3.432 5.818-2.358 11.098-5.857 15.526-10.292 4.435-4.435 7.936-9.715 10.298-15.526 2.355-5.812 3.52-12.038 3.43-18.309-0.096-6.271-1.44-12.46-3.968-18.2s-6.182-10.915-10.746-15.217l-132.582-132.581c-4.346-4.354-9.504-7.807-15.187-10.163s-11.776-3.565-17.926-3.562zM205.752 94.861c-9.269 0.006-18.328 2.758-26.033 7.917-7.704 5.152-13.708 12.474-17.252 21.037s-4.469 17.99-2.659 27.078c1.811 9.088 6.276 17.44 12.831 23.994l132.544 132.486c4.353 4.352 9.521 7.808 15.209 10.163s11.784 3.569 17.94 3.569c6.157 0 12.253-1.214 17.941-3.569s10.856-5.811 15.209-10.163c4.353-4.352 7.807-9.523 10.163-15.206 2.356-5.69 3.569-11.782 3.569-17.939s-1.212-12.256-3.569-17.946c-2.356-5.683-5.809-10.854-10.163-15.206l-132.581-132.448c-4.347-4.365-9.513-7.827-15.202-10.189s-11.788-3.578-17.948-3.578zM338.32 574.805c-6.157-0.008-12.255 1.2-17.944 3.555s-10.856 5.811-15.206 10.17l-132.543 132.581c-4.564 4.303-8.218 9.477-10.746 15.217s-3.877 11.929-3.97 18.2c-0.092 6.271 1.075 12.497 3.432 18.309s5.857 11.092 10.292 15.526c4.435 4.435 9.715 7.935 15.526 10.292s12.038 3.524 18.309 3.432c6.271-0.093 12.46-1.443 18.2-3.97s10.915-6.182 15.217-10.746l132.581-132.581c6.557-6.556 11.023-14.909 12.833-24.003s0.881-18.52-2.668-27.087c-3.549-8.566-9.558-15.888-17.268-21.039s-16.774-7.898-26.047-7.897v0.038zM818.266 94.861c-6.163 0-12.262 1.216-17.952 3.578s-10.854 5.824-15.2 10.189l-132.486 132.544c-8.064 8.915-12.384 20.595-12.083 32.608 0.307 12.019 5.216 23.462 13.715 31.962s19.942 13.408 31.962 13.715c12.013 0.301 23.693-4.019 32.608-12.083l132.544-132.486c6.56-6.554 11.027-14.906 12.832-24 1.811-9.094 0.883-18.522-2.662-27.091-3.552-8.563-9.562-15.885-17.267-21.037-7.712-5.152-16.781-7.898-26.048-7.898h0.038z" />
<glyph unicode="&#xe919;" glyph-name="loading" d="M208.115 208.141c-149.239 149.753-149.239 393.706 0 543.457l79.611-79.611v239.857h-239.857l92.667-92.666c-187.381-187.124-187.381-491.49 0-678.87 118.264-118.010 282.862-161.779 435.429-130.554v98.81c-127.224-33.018-268.272 0-367.85 99.578zM819.43 819.181c-118.266 118.521-282.864 162.294-435.43 131.064v-98.81c127.224 33.022 268.525-0.512 367.846-99.834 149.754-149.751 149.754-393.704 0-543.454l-79.61 79.61v-240.115h240.115l-92.666 92.672c187.123 187.378 187.123 491.743-0.256 678.867z" />
<glyph unicode="&#xe91a;" glyph-name="hamburger" d="M37.935 713.481h657.382c10.061 0 19.708 3.996 26.82 11.108s11.106 16.759 11.106 26.818c0 10.059-3.994 19.705-11.106 26.818s-16.759 11.108-26.82 11.108h-657.382c-10.059 0-19.705-3.996-26.818-11.108s-11.108-16.759-11.108-26.818c0-10.059 3.996-19.705 11.108-26.818s16.759-11.108 26.818-11.108zM0.009 448c0 10.057 3.996 19.703 11.108 26.816s16.759 11.11 26.818 11.11h910.221c10.061 0 19.708-3.998 26.82-11.11s11.106-16.759 11.106-26.816c0-10.057-3.994-19.703-11.106-26.816s-16.759-11.11-26.82-11.11h-910.221c-10.059 0-19.705 3.998-26.818 11.11s-11.108 16.759-11.108 26.816zM0.009 144.593c0 10.057 3.996 19.703 11.108 26.816s16.759 11.11 26.818 11.11h455.112c10.057 0 19.703-3.998 26.816-11.11s11.11-16.759 11.11-26.816c0-10.061-3.998-19.708-11.11-26.82s-16.759-11.106-26.816-11.106h-455.112c-10.059 0-19.705 3.994-26.818 11.106s-11.108 16.759-11.108 26.82z" />
<glyph unicode="&#xe91b;" glyph-name="quote" horiz-adv-x="1420" d="M1308.26 943.374l-199.48-398.962h299.22v-598.44h-598.442v598.44l199.48 398.962h299.222zM1376.912 513.324h-318.434l199.48 398.962h-229.706l-187.606-375.212v-560.014h536.266v536.264zM510.338 943.374l-199.482-398.96 299.222-0.002v-598.44h-598.442v598.442l199.481 398.96h299.221zM578.991 513.324h-318.434l199.48 398.962h-229.706l-187.606-375.212v-560.014h536.266v536.264z" />
<glyph unicode="&#xe91c;" glyph-name="painting" d="M968 22.4h-76.001v380.001h76.001c5.97-0.008 11.812 1.746 16.794 5.038 4.979 3.292 8.881 7.98 11.215 13.476s3 11.556 1.912 17.428c-1.091 5.87-3.884 11.292-8.033 15.585l-117.041 121.6v279.831c0 8.063-3.203 15.795-8.904 21.496s-13.435 8.904-21.496 8.904h-176.471c-8.064 0-15.795-3.203-21.496-8.904s-8.904-13.433-8.904-21.496v-35.416l-101.688 105.184c-2.836 2.942-6.236 5.283-9.997 6.881s-7.805 2.422-11.891 2.422c-4.086 0-8.131-0.824-11.891-2.422s-7.16-3.939-9.997-6.881l-82.383-85.12c-27.72 27.406-62.927 46.002-101.189 53.446s-77.872 3.407-113.845-11.606c-35.973-15.013-66.702-40.33-88.321-72.766s-33.161-70.541-33.174-109.521c0.047-34.012 8.785-67.446 25.384-97.129-22.295-20.321-40.118-45.059-52.339-72.64s-18.57-57.4-18.645-87.567c0-2.432 0-4.713 0-7.145-0.383-2.621-0.383-5.284 0-7.903 2.952-35.090 14.122-68.992 32.607-98.962s43.764-55.171 73.794-73.559v-232.256h-76c-8.063 0-15.795-3.203-21.496-8.904s-8.904-13.435-8.904-21.496c0-8.061 3.203-15.795 8.904-21.496s13.433-8.904 21.496-8.904h912.001c8.061 0 15.795 3.203 21.496 8.904s8.904 13.435 8.904 21.496c0 8.061-3.203 15.795-8.904 21.496s-13.435 8.904-21.496 8.904zM86.399 442.225c0.279 25.508 6.644 50.58 18.568 73.132 11.923 22.554 29.060 41.93 49.984 56.525 3.303 2.399 6.089 5.44 8.191 8.94s3.478 7.386 4.046 11.428c0.567 4.045 0.315 8.159-0.743 12.104-1.058 3.942-2.899 7.631-5.414 10.849-18.992 23.997-29.233 53.755-29.032 84.36 0 36.281 14.413 71.076 40.068 96.731s60.451 40.068 96.733 40.068c36.28 0 71.076-14.413 96.732-40.068 25.654-25.655 40.067-60.451 40.067-96.731 0.202-30.605-10.040-60.362-29.030-84.36-2.54-3.22-4.401-6.922-5.473-10.88-1.070-3.958-1.331-8.092-0.763-12.155 0.568-4.060 1.953-7.964 4.068-11.479 2.117-3.512 4.923-6.559 8.248-8.96 20.902-14.577 38.026-33.93 49.948-56.456 11.922-22.523 18.301-47.565 18.604-73.047 0-91.2-81.777-166.29-182.4-166.29-100.625 0-182.401 74.634-182.401 166.29zM192.799 226.688c14.869-4.603 30.135-7.808 45.6-9.577v-194.711h-45.6v204.288zM299.2 22.4v194.711c119.775 13.985 212.8 109.594 212.8 225.114-0.077 30.167-6.426 59.986-18.647 87.567-12.219 27.581-30.042 52.319-52.337 72.64 16.599 29.683 25.336 63.117 25.382 97.129 0.090 31.747-7.526 63.042-22.19 91.199l67.791 69.464 132.088-136.8c4.206-4.365 9.623-7.373 15.552-8.636 5.932-1.263 12.104-0.725 17.725 1.547 5.619 2.271 10.435 6.172 13.821 11.2s5.194 10.954 5.189 17.017v80.408h115.671v-262.351c-0.008-7.88 3.044-15.455 8.512-21.128l76.001-78.28h-34.962c-8.061 0-15.795-3.205-21.496-8.906s-8.904-13.432-8.904-21.496v-410.399h-531.999z" />
<glyph unicode="&#xe91d;" glyph-name="color-palatte" d="M696.758 264.637l254.541 184.901-184.361 255.899-274.988-199.759 95.885 326.613-301.701 89.307-192.864-656.963h-54.87v-315.837h972.8v315.837h-314.442zM494.943 264.637h-237.576l155.955 113.28 81.62-113.28zM533.522 207.401v-201.364h-153.894v201.364h153.894zM590.52 207.401h153.892v-201.364h-153.892v201.364zM565.294 264.637l-105.792 146.834 124.687 90.57 117.54-163.149-102.228-74.255h-34.207zM871.706 462.364l-123.796-89.923-117.54 163.146 123.796 89.925 117.54-163.149zM408.425 445.005l-186.571 55.232 43.516 148.216 192.351-56.934-41.308-140.703-7.987-5.811zM324.692 850.513l192.351-56.933-43.203-147.167-192.351 56.94 43.203 147.161zM205.741 445.338l144.326-42.726-189.941-137.974h-7.437l53.052 180.7zM95.4 207.401h227.229v-201.364h-227.229v201.364zM954.199 6.036h-152.786v201.364h152.786v-201.364zM182.687 134.904h57v-57.239h-57v57.239z" />
<glyph unicode="&#xe91e;" glyph-name="house" d="M952.699 650.801h-177.449v98.689l-263.25 197.711-263.25-197.711v-98.689h-177.45v-526.5h352.951v-175.501h175.498v175.501h352.95v526.5zM307.251 422.999h87.749v-58.501h-87.749v58.501zM570.501 364.498h-117.002v227.802h117.002v-227.802zM629 422.999h87.749v-58.501h-87.749v58.501zM512 874.038l204.749-153.775v-238.765h-87.749v169.303h-233.999v-169.3h-87.749v238.765l204.749 153.773zM541.251 7.301h-58.501v117h58.501v-117zM894.2 182.799h-764.4v409.5h118.95v-286.3h526.5v286.3h118.95v-409.5z" />
<glyph unicode="&#xe91f;" glyph-name="paint-brush" d="M998.392 554.86v271.968h-119.693v107.573h-853.1v-409.636c0-48.612 39.551-88.164 88.164-88.164s88.165 39.552 88.165 88.312c0 14.858 12.098 26.949 26.956 26.949s26.956-12.091 26.956-26.949v-6.464c0-45.133 36.716-81.848 81.848-81.848 45.125 0 81.848 36.716 81.848 81.848v134.751h459.162v116.628h62.7v-172.692l-526.195-159.593v-98.086h-108.887v-57.001h28.559v-320.855h216.602v320.855h29.612v57.001h-108.884v55.811l526.188 159.593zM362.532 518.449c0-13.701-11.149-24.85-24.85-24.85s-24.847 11.149-24.847 24.85v6.464c0 46.29-37.66 83.958-83.949 83.958-46.29 0-83.956-37.668-83.956-84.106 0-17.18-13.983-31.165-31.165-31.165-17.189 0-31.164 13.985-31.164 31.165v128.435h279.932v-134.751zM821.701 710.2h-739.101v167.2h739.101v-167.2zM494.477 18.601h-102.6v263.854h102.6v-263.854z" />
<glyph unicode="&#xe920;" glyph-name="bucket-2" d="M918.854 339.663c-4.755-3.306-103.302-107.592-103.302-180.783 0-77.165 49.018-126.445 103.302-129.126 46.797-2.272 103.302 46.022 103.302 129.126 0 77.478-98.554 177.477-103.302 180.783zM380.951 29.754c19.524-19.526 45.453-30.272 73.036-30.272s53.511 10.746 73.036 30.272l361.56 361.561-553.034 553.037-73.036-73.036 118.438-118.437-288.527-288.529c-19.524-19.524-30.268-45.453-30.268-73.036s10.744-53.512 30.268-73.036l288.527-288.525zM453.987 679.843l288.529-288.528h-577.055l288.527 288.528z" />
<glyph unicode="&#xe921;" glyph-name="location" d="M772.347 775.426c-69.53 69.532-161.976 107.825-260.311 107.825-98.331 0-190.781-38.293-260.311-107.825-69.532-69.534-107.825-161.98-107.825-260.311 0-198.919 188.085-364.372 289.132-453.26 14.042-12.355 26.168-23.020 35.829-32.046 12.104-11.305 27.64-16.957 43.174-16.957s31.068 5.652 43.172 16.957c9.661 9.027 21.791 19.692 35.83 32.046 101.048 88.888 289.132 254.341 289.132 453.26 0 98.33-38.292 190.777-107.822 260.311zM557.363 100.137c-14.351-12.626-26.742-23.526-36.961-33.070-4.69-4.378-12.043-4.383-16.738 0-10.215 9.549-22.608 20.449-36.958 33.070-94.996 83.564-271.823 239.114-271.823 414.977 0 174.876 142.272 317.148 317.148 317.148 174.879 0 317.148-142.272 317.148-317.148 0.005-175.862-176.819-331.413-271.816-414.977zM512.005 691.251c-89.457 0-162.234-72.775-162.234-162.231 0-89.458 72.777-162.233 162.234-162.233s162.232 72.776 162.232 162.233c0 89.456-72.776 162.231-162.232 162.231zM512.005 417.777c-61.342 0-111.247 49.905-111.247 111.245s49.906 111.245 111.247 111.245c61.343 0 111.242-49.905 111.242-111.245s-49.9-111.245-111.242-111.245z" />
<glyph unicode="&#xe922;" glyph-name="bucket" d="M512.005 842.664c177.025 0 309.332-61.952 309.332-117.334 0-19.626-17.875-41.13-50.349-60.501-21.587-12.928-34.982-37.163-34.982-63.232v-345.597c0-17.664-14.381-32-32-32-17.626 0-32 14.336-32 32v282.024c0 21.12-9.005 41.344-24.704 55.424-13.697 12.33-31.532 19.072-49.836 19.072-2.687 0-5.333-0.128-8.021-0.427-12.715-1.365-25.77-2.389-39.168-3.115-38.741-2.005-70.272-35.413-70.272-74.41v-65.238c0-19.626-19.883-34.602-37.802-31.488-23.382 4.352-46.976-1.706-64.513-16.384-16.341-13.61-25.685-33.706-25.685-55.125v-25.003c0-17.664-14.379-31.999-32-31.999s-32 14.335-32 31.999v260.267c0 26.069-13.397 50.304-34.987 63.232-32.469 19.371-50.346 40.875-50.346 60.501 0 55.382 132.309 117.334 309.333 117.334zM885.338 725.331c0 103.382-160.512 181.334-373.332 181.334s-373.333-77.952-373.333-181.334c0-4.65 0.512-9.728 1.28-14.933-0.427-2.133-1.28-4.139-1.28-6.4v-545.661c0-11.648 2.048-21.722 6.314-30.893 38.102-81.28 189.014-138.112 367.019-138.112s328.916 56.832 367.060 138.24c4.224 9.088 6.272 19.117 6.272 30.765v545.661c0 2.261-0.851 4.267-1.28 6.4 0.768 5.205 1.28 10.283 1.28 14.933z" />
<glyph unicode="&#xe923;" glyph-name="arrow-up" d="M0 252.371l120.748-120.749 391.252 391.254 391.251-391.254 120.749 120.749-512 511.998-512-511.998z" />
<glyph unicode="&#xe924;" glyph-name="bell" horiz-adv-x="983" d="M544.207 887.222v-20.448c-17.302 2.753-34.603 4.327-52.691 4.327h-5.898c-16.122-0.394-31.457-1.968-46.793-4.721v20.842c0 29.097 23.593 52.298 52.691 52.298s52.691-23.201 52.691-52.298zM362.933 51.638c16.517-54.657 68.027-95.158 128.582-95.158s112.067 40.501 128.582 95.158h-257.164zM862.712 112.587c0-11.796-9.437-21.627-21.234-21.627h-699.925c-11.796 0-21.233 9.83-21.233 21.627 0 25.952 10.224 50.725 29.098 68.813 37.75 36.962 58.982 87.294 58.982 139.985v217.842c0 156.106 121.899 289.8 278.004 292.553 158.859 2.75 288.227-125.045 288.227-283.116v-227.279c0-52.691 21.234-103.023 58.982-139.985 18.874-18.088 29.098-42.861 29.098-68.813zM697.954 613.149c-18.874 60.951-64.094 110.103-123.863 134.875-10.224 4.325-21.627-0.787-25.952-10.617-3.932-10.224 0.786-21.626 11.010-25.56 48.759-20.446 85.721-60.554 101.45-110.493 2.753-8.65 10.224-13.762 18.874-13.762 1.966 0 3.932 0 5.898 0.787 10.224 3.144 16.122 14.155 12.583 24.77z" />
<glyph unicode="&#xe925;" glyph-name="check" horiz-adv-x="1365" d="M485.519 124.547c53.692 57.903 106.33 114.752 158.968 171.601 177.918 192.656 356.888 385.313 534.808 579.022 22.107 24.214 47.377 37.9 80.009 31.583 61.065-11.58 85.276-83.169 43.167-130.544-36.853-42.11-75.799-83.168-113.698-124.226-196.873-212.659-392.687-424.265-588.502-635.871-69.483-75.8-161.073-75.8-229.503 0-94.748 103.171-190.55 205.289-285.299 308.461-43.164 47.375-24.214 117.91 35.794 133.701 32.636 7.369 58.955-3.158 80.011-27.373 73.693-80.010 148.44-160.020 222.133-240.030 21.056-21.056 41.058-43.164 62.114-66.324z" />
<glyph unicode="&#xe926;" glyph-name="minus" d="M870.4 364.8h-716.8v134.4h716.8v-134.4z" />
<glyph unicode="&#xe927;" glyph-name="plus" d="M870.4 380.8h-716.8v134.4h716.8v-134.4zM444.8 89.6v716.8h134.4v-716.8h-134.4z" />
<glyph unicode="&#xe928;" glyph-name="arrow-right" d="M316.369 960l-120.744-120.748 391.252-391.252-391.252-391.251 120.744-120.749 512.002 512-512.002 512z" />
<glyph unicode="&#xe929;" glyph-name="arrow-left" d="M707.629 960l120.749-120.748-391.254-391.252 391.254-391.251-120.749-120.749-511.997 512 511.997 512z" />
<glyph unicode="&#xe92a;" glyph-name="arrow-long" d="M173.384 64l-45.376 45.126c0 0 429.016 430.896 643.5 646.374-129.626 4.169-388.87 12.5-388.87 12.5l1.984 64c0 0 308.416-9.906 462.624-14.875 16.806-0.512 30.349-13.947 31.002-30.75 5.888-153.959 17.747-461.876 17.747-461.876l-64-2.374c0 0-10.003 258.915-14.995 388.375-214.656-215.37-643.615-646.5-643.615-646.5z" />
<glyph unicode="&#xe92b;" glyph-name="safety" d="M512 694.999c-10.66 0-20.828-4.475-28.024-12.337-1.664-1.82-41.244-45.166-81.398-99.571-58.058-78.659-86.277-137.925-86.277-181.194v-0.271c0-108.106 87.79-196.058 195.699-196.058s195.699 87.951 195.699 196.058v0.271c0 43.267-28.219 102.536-86.275 181.194-40.156 54.408-79.734 97.751-81.398 99.571-7.199 7.859-17.367 12.337-28.027 12.337zM631.7 401.897v-0.271c0-66.202-53.699-120.059-119.7-120.059s-119.7 53.857-119.7 120.059v0.271c0 9.188 5.125 46.118 71.050 135.555 17.316 23.488 34.775 45.071 48.653 61.606 13.76-16.392 31.050-37.763 48.271-61.1 66.276-89.792 71.427-126.843 71.427-136.061zM25.6 679.8v91.2c0 20.987 17.012 38 38 38s38-17.012 38-38v-61.822c37.39 58.701 87.048 108.902 146.004 147.149 78.732 51.076 170.158 78.073 264.396 78.073 129.923 0 252.068-50.593 343.936-142.462s142.464-214.015 142.464-343.938c0-20.987-17.014-38.001-38.001-38.001s-38.001 17.014-38.001 38.001c0 226.296-184.102 410.4-410.399 410.4-143.764 0-277.155-76.296-350.981-197.6h50.781c20.987 0 38-17.014 38-38.001s-17.012-37.998-38-37.998h-91.2c-52.383 0-95 42.614-95 94.999zM998.4 216.2v-89.3c0-20.987-17.014-37.998-38.001-37.998s-38.001 17.011-38.001 37.998v62.899c-37.599-59.983-87.949-111.229-147.901-150.126-78.73-51.075-170.158-78.072-264.397-78.072-129.848 0-251.684 50.624-343.066 142.541-91.204 91.743-141.434 213.862-141.434 343.859 0 20.987 17.012 38.001 38 38.001s38-17.014 38-38.001c0-226.296 183.254-410.399 408.5-410.399 143.764 0 277.153 76.296 350.979 197.599h-50.78c-20.987 0-37.998 17.014-37.998 38.001s17.011 37.998 37.998 37.998h93.102c52.383 0 94.999-42.616 94.999-94.999z" />
<glyph unicode="&#xe92c;" glyph-name="energy" d="M920 337.999c0-63.79-15.465-132.265-44.728-188.472-10.204-19.594-34.363-27.208-53.955-17.006-19.594 10.202-27.208 34.355-17.006 53.952 23.68 45.486 35.689 99.82 35.689 151.526 0 66.947-60.442 191.624-170.189 340.378-56.128 76.083-112.66 143.165-145.807 181.297-33.249-38.254-90.017-105.618-146.214-181.837-109.491-148.495-169.789-272.978-169.789-339.837 0-174.766 141.757-321.999 316.001-321.999 54.124 0 107.505 13.944 154.378 40.325 19.261 10.834 43.643 4.014 54.479-15.24 10.834-19.251 4.012-43.64-15.24-54.477-58.826-33.108-125.78-50.609-193.618-50.609-218.358 0-396.001 183.122-396.001 401.999 0 86.351 62.516 220.754 185.812 387.875 89.229 120.944 176.988 217.098 180.68 221.132 7.578 8.28 18.286 12.994 29.509 12.994 11.22 0 21.929-4.714 29.507-12.994 3.692-4.034 91.453-100.19 180.68-221.134 123.297-167.119 185.812-301.521 185.812-387.873zM446.001 168c-0.031-6.292 5.427-10.028 12.419-9.999 4.913 0.020 10.102 1.989 13.522 5.396l188.826 216.023c16.394 18.952 3.156 48.581-22.003 48.581h-92.631l73.19 117.998h-141.97l-92.168-164.334c-15.060-26.847 4.488-59.666 35.436-59.666h80.356l-53.75-148.982c-0.84-1.828-1.221-3.505-1.226-5.018z" />
<glyph unicode="&#xe92d;" glyph-name="repair" d="M435.643 252.413c-3.336-3.323-8.394-5.243-13.184-5.263-6.817-0.028-12.137 3.615-12.111 9.751 0.008 1.475 0.379 3.11 1.196 4.892l52.408 145.257h-78.344c-30.175 0-49.234 31.997-34.552 58.173l89.861 160.225h138.422l-71.363-115.049h90.317c24.532 0 37.437-28.887 21.453-47.365l-184.102-210.621zM622.899 65.8v19.643c0 5.166 3.256 9.851 8.166 11.878l0.842 0.348c5.059 2.099 10.688 1.098 14.341-2.557l13.888-13.888c45.619-45.617 119.846-45.617 165.463 0 15.232 15.229 15.232 39.926 0 55.155-15.232 15.227-39.923 15.227-55.153 0-15.206-15.209-39.949-15.209-55.155 0l-13.888 13.888c-26.048 26.048-65.042 33.684-99.359 19.459l-0.63-0.259c-34.332-14.18-56.515-47.163-56.515-84.024v-19.643c0-21.504-17.498-38.999-39.002-38.999h-38.999c-21.504 0-39.002 17.495-39.002 38.999v19.643c0 36.861-22.182 69.842-56.643 84.076l-0.502 0.205c-34.314 14.228-73.308 6.592-99.359-19.459l-13.888-13.888c-15.205-15.212-39.949-15.206-55.153-0.003l-27.579 27.581c-7.365 7.365-11.421 17.157-11.421 27.576 0 10.417 4.058 20.211 11.421 27.576l13.89 13.888c26.064 26.066 33.692 65.091 19.484 99.3l-0.285 0.686c-14.177 34.332-47.157 56.517-84.024 56.517h-19.642c-21.505 0-39 17.498-39 39.002v38.999c0 21.504 17.495 39.002 39 39.002h19.644c36.865 0 69.845 22.185 84.041 56.561l0.217 0.525c14.26 34.327 6.63 73.352-19.436 99.418l-13.888 13.888c-7.365 7.365-11.423 17.16-11.423 27.576 0 10.419 4.056 20.21 11.423 27.579l27.577 27.577c7.367 7.367 17.16 11.423 27.577 11.423s20.212-4.056 27.576-11.423l13.891-13.888c26.051-26.048 65.044-33.688 99.359-19.459l0.627 0.259c34.332 14.177 56.515 47.159 56.515 84.022v19.642c0 21.505 17.498 39 39.002 39h38.999c21.504 0 39.002-17.495 39.002-39v-19.642c0-36.861 22.182-69.843 56.643-84.076l0.502-0.205c34.314-14.229 73.308-6.591 99.359 19.459l13.888 13.89c7.365 7.365 17.16 11.421 27.576 11.421s20.209-4.056 27.576-11.421l27.579-27.581c7.365-7.365 11.42-17.158 11.42-27.577 0-10.416-4.058-20.211-11.423-27.576l-13.888-13.888c-26.066-26.066-33.695-65.091-19.438-99.412l0.238-0.571c14.177-34.335 47.16-56.52 84.022-56.52h19.645c21.504 0 38.999-17.495 38.999-38.999v-38.999c0-21.507-17.495-39.002-38.999-39.002h-19.643c-36.864 0-69.847-22.185-84.040-56.561l-0.218-0.527c-14.259-34.327-6.628-73.349 19.436-99.415 15.229-15.232 39.923-15.229 55.153-0.003 15.232 15.232 15.232 39.926 0.003 55.155-3.653 3.653-4.657 9.285-2.509 14.461l0.248 0.599c2.079 5.038 6.761 8.289 11.927 8.289h19.643c64.515 0 117 52.488 117 117.002v38.999c0 64.515-52.485 117-117 117h-19.645c-5.164 0-9.846 3.254-11.907 8.246l-0.315 0.76c-2.102 5.061-1.098 10.688 2.555 14.341l13.888 13.891c22.1 22.098 34.271 51.476 34.271 82.73s-12.17 60.635-34.268 82.731l-27.579 27.581c-22.098 22.097-51.479 34.267-82.729 34.267-31.255 0-60.634-12.17-82.732-34.267l-13.888-13.888c-3.656-3.654-9.285-4.657-14.344-2.558l-0.714 0.294c-5.038 2.079-8.292 6.765-8.292 11.93v19.641c0 64.514-52.485 117-117 117h-38.999c-64.515 0-117.002-52.486-117.002-117v-19.642c0-5.166-3.254-9.851-8.164-11.879l-0.842-0.347c-5.059-2.1-10.685-1.098-14.341 2.558l-13.888 13.886c-22.1 22.099-51.482 34.269-82.734 34.269-31.251 0-60.633-12.17-82.733-34.269l-27.575-27.577c-22.099-22.097-34.269-51.478-34.269-82.733 0-31.25 12.17-60.634 34.269-82.732l13.89-13.888c3.654-3.653 4.657-9.283 2.553-14.346l-0.294-0.712c-2.079-5.036-6.761-8.289-11.928-8.289h-19.644c-64.514 0-117-52.485-117-117v-38.999c0-64.515 52.486-117 117-117h19.642c5.168 0 9.85-3.254 11.911-8.248l0.314-0.76c2.102-5.059 1.098-10.688-2.556-14.341l-13.888-13.888c-22.099-22.098-34.269-51.479-34.269-82.732s12.17-60.634 34.267-82.729l27.579-27.581c45.618-45.617 119.844-45.617 165.464 0l13.888 13.888c3.653 3.656 9.283 4.659 14.341 2.557l0.717-0.294c5.036-2.079 8.292-6.764 8.292-11.93v-19.643c0-64.515 52.485-117 117-117h38.999c64.515 0 117 52.485 117 117z" />
<glyph unicode="&#xe92e;" glyph-name="circle-check" d="M327.68 601.594l-71.68-71.68 256-256 512 512-71.68 71.68-440.32-440.32-184.32 184.32zM460.8 89.594c-199.68 0-358.4 158.72-358.4 358.403 0 199.68 158.72 358.4 358.4 358.4 61.44 0 122.88-15.36 179.2-46.080l51.2 87.040c-71.68 40.96-148.48 61.44-230.4 61.44-256 0-460.8-204.8-460.8-460.8 0-256.003 204.8-460.803 460.8-460.803s460.8 204.8 460.8 460.803h-102.4c0-199.683-158.72-358.403-358.4-358.403z" />
<glyph unicode="&#xe92f;" glyph-name="play" d="M73.143 960l877.714-512-877.714-512v1024z" />
<glyph unicode="&#xe930;" glyph-name="arrow-down" horiz-adv-x="1088" d="M832 524.168l-51.834 51.832-268.166-267.981-268.168 267.981-51.832-51.832 320-320.187 320 320.187z" />
<glyph unicode="&#xe931;" glyph-name="plug" d="M874.040 810.040c-96.707 96.702-225.28 149.96-362.040 149.96s-265.334-53.258-362.040-149.96c-96.52-96.522-149.758-227.568-149.96-364.039 0-118.415 41.33-233.116 116.456-324.393 74.096-90.025 177.435-152.579 290.978-176.141 8.195-1.7 16.435-2.537 24.62-2.537 27.346 0.003 53.998 9.339 75.674 26.977 28.111 22.874 44.239 56.776 44.247 93.020l0.026 172.992c88.901 18.117 156.004 96.909 156.004 191.081v102.999c0 22.093-17.907 40-40 40h-33.999v102.001c0 22.093-17.907 40-40 40s-40-17.907-40-40v-102.001h-80v102.001c0 22.093-17.91 40-40 40-22.093 0-40-17.907-40-40v-102.001h-36.001c-22.090 0-40-17.907-40-40v-102.999c0-93.46 66.097-171.763 153.997-190.648l-0.026-173.409c-0.003-16.527-9.234-26.504-14.735-30.981-9.416-7.657-21.642-10.637-33.549-8.164-198.928 41.28-343.378 218.749-343.732 422.203 0 0 0.044-0.502 0.044 0 0 238.205 193.795 433.999 432.001 433.999s432-193.795 432-432c0-174.633-103.473-331.318-263.606-399.171-20.342-8.617-29.844-32.095-21.225-52.436s32.097-29.844 52.436-21.222c91.397 38.725 169.221 103.089 225.060 186.127 57.132 84.969 87.332 184.108 87.332 286.702 0 136.76-53.256 265.336-149.96 362.040zM398.001 427v62.999h229.998v-62.999c0-63.411-51.587-115-114.998-115-63.414 0-115 51.589-115 115z" />
<glyph unicode="&#xe932;" glyph-name="time" horiz-adv-x="1003" d="M864.824 792.277c-89.167 89.167-207.724 138.277-333.828 138.277-107.76 0-213.155-37.261-296.768-104.919-82.384-66.662-140.536-159.989-163.75-262.788l57.52-12.986c20.302 89.92 71.204 171.581 143.319 229.935 73.155 59.192 165.376 91.791 259.678 91.791 227.802 0 413.138-185.334 413.138-413.138 0-227.802-185.334-413.138-413.138-413.138-203.352 0-372.85 147.688-406.895 341.431l15.274-12.516 37.377 45.608-76.177 62.428h-24.4l-76.175-62.428 37.377-45.608 25.709 21.071c13.574-102.162 59.977-196.572 134.080-270.677 89.169-89.167 207.727-138.278 333.83-138.278 126.105 0 244.661 49.108 333.828 138.278s138.278 207.726 138.278 333.828c0 126.105-49.11 244.659-138.278 333.828zM811.085 458.449c0 154.444-125.647 280.093-280.091 280.093-154.442 0-280.091-125.649-280.091-280.093 0-154.442 125.649-280.091 280.091-280.091 154.444 0 280.091 125.647 280.091 280.091zM394.706 363.856l-39.447-39.449c-22.808 29.828-38.204 65.603-43.418 104.559h55.894v58.968h-55.894c5.214 38.956 20.61 74.731 43.418 104.559l39.447-39.449 41.696 41.696-39.449 39.449c29.828 22.806 65.603 38.201 104.561 43.418v-55.896h58.966v55.896c38.958-5.216 74.733-20.612 104.561-43.418l-39.449-39.449 41.696-41.696 39.447 39.449c22.808-29.828 38.204-65.603 43.418-104.559h-55.894v-58.968h55.894c-5.214-38.956-20.61-74.731-43.418-104.559l-39.447 39.449-41.696-41.696 39.449-39.449c-29.828-22.806-65.603-38.201-104.561-43.418v55.896h-58.966v-55.896c-38.958 5.216-74.733 20.612-104.561 43.418l39.449 39.449-41.696 41.696zM603.608 487.934h-43.131v74.808h-58.968v-133.776h102.099v58.968z" />
<glyph unicode="&#xe933;" glyph-name="community" horiz-adv-x="1003" d="M927.393 815.408c-96.808 100.896-270.982 100.959-367.865 0.153l-45.025-43.743-50.352 50.35c-106.13 106.133-278.823 106.133-384.955 0-105.596-101.315-105.598-283.64 0-384.955l5.1-5.101-9.964-9.964c-37.982-36.442-37.98-102.015 0-138.457l0.867-0.867c18.245-18.244 42.425-28.382 68.184-28.651 0.269-25.759 10.407-49.938 28.65-68.182l0.867-0.867c18.6-18.593 43.413-28.829 69.719-28.664 0.642-25.195 10.727-48.788 28.613-66.675l0.867-0.867c36.444-37.982 102.015-37.98 138.457 0l13.099 13.097 58.608-58.608c37.702-37.7 99.048-37.698 136.75 0.002 18.478 18.478 27.876 42.632 28.244 66.901 50.111-0.255 94.325 43.021 95.094 93.169 71.511 0.771 114.728 81.072 76.451 141.208l108.001 102.135c101.503 96.72 101.756 271.536 0.587 368.588zM172.031 324.447c-14.53-15.145-40.678-15.145-55.208 0l-0.867 0.867c-15.144 14.532-15.144 40.676 0 55.208l54.047 54.048c15.227 15.224 39.993 15.216 55.22-0.013l0.859-0.857c15.218-15.218 15.22-39.982 0.006-55.202l-54.056-54.053zM269.732 226.745c-14.53-15.147-40.678-15.145-55.208 0l-0.867 0.867c-15.144 14.532-15.142 40.678 0 55.21l88.344 88.342c14.541 15.149 40.676 15.147 55.221-0.013l0.857-0.857c15.145-14.532 15.143-40.678 0-55.21l-88.346-88.34zM403.97 165.572l-35.040-35.033c-14.539-15.149-40.676-15.147-55.219 0.010l-0.861 0.861c-15.141 14.53-15.136 40.678 0.002 55.206l35.040 35.033c14.541 15.149 40.676 15.147 55.221-0.010l0.857-0.857c15.147-14.528 15.145-40.678 0-55.21zM764.397 272.035c-12.95-12.948-34.020-12.953-46.97 0l-58.393 58.393c-11.492 11.492-30.129 11.492-41.625 0-11.494-11.494-11.494-30.131 0-41.625l55.125-55.125c34.024-36.973-16.57-87.516-53.505-53.507l-54.834 54.834c-11.492 11.492-30.129 11.492-41.622 0-11.496-11.492-11.496-30.131 0-41.625l54.548-54.548c0.094-0.098 0.176-0.205 0.272-0.301 14.752-14.752 14.752-38.755 0-53.505-14.752-14.756-38.753-14.75-53.505-0.002l-61.442 61.44c20.61 36.801 13.623 86.436-16.863 115.948l-0.857 0.857c-10.008 10.008-21.807 17.556-34.666 22.401 27.775 37.307 23.305 93.836-10.372 126.259l-0.857 0.857c-27.096 27.824-70.972 36.358-106.571 21.326-4.483 15.099-12.67 29.322-24.57 41.221l-0.859 0.859c-38.172 38.17-100.281 38.168-138.457 0l-2.459-2.46-5.098 5.099c-83.181 83.18-83.181 218.526 0 301.707 83.183 83.18 218.528 83.18 301.708 0l49.752-49.75-94.35-91.665c-42.13-39.069-42.715-110.876-1.239-150.628 41.192-41.19 108.218-41.19 149.408 0l32.542 32.542c1.022 1.022 2.692 1.022 3.716 0l202.039-202.039c12.886-12.359 12.886-34.601 0.004-46.964zM886.050 489.296l-107.263-101.437-174.807 174.807c-22.887 23.855-64.073 23.855-86.961 0l-32.542-32.542c-18.24-18.24-47.919-18.24-66.159 0.002-18.38 17.638-18.112 49.399 0.589 66.74l181.789 176.621c196.401 181.505 465.991-87.23 285.353-284.191z" />
<glyph unicode="&#xe934;" glyph-name="badge-check-2" horiz-adv-x="1003" d="M631.127 621.246l-41.56 41.56-110.276-110.279-65.762 65.758-41.56-41.558 107.321-107.321 151.836 151.84zM501.547 311.024c146.382 0 265.471 119.089 265.471 265.471s-119.089 265.471-265.471 265.471c-146.38 0-265.471-119.089-265.471-265.471s119.091-265.471 265.471-265.471zM501.547 783.191c113.973 0 206.695-92.722 206.695-206.695 0-113.971-92.722-206.695-206.695-206.695-113.971 0-206.695 92.724-206.695 206.695 0 113.973 92.724 206.695 206.695 206.695zM112.673 112.527l164.112-27.009 105.445-128.621 119.323 206.675 119.321-206.675 105.445 128.621 164.112 27.009-117.263 203.105c9.291 14.888 16.302 31.148 20.747 48.341 34.168 21.949 59.614 54.937 72.345 94.175 12.727 39.223 11.469 80.72-3.342 118.32 14.877 37.79 16.102 79.444 3.252 118.751-12.794 39.129-38.185 71.916-72.211 93.63-10.117 39.317-33.581 73.75-67.089 98.026-33.343 24.157-73.147 35.787-113.44 33.379-31.318 25.732-70.472 39.746-111.731 39.746-0.159 0-0.313 0-0.47 0-41.196-0.106-80.294-14.132-111.539-39.76-40.58 2.42-80.482-9.201-113.681-33.336-33.203-24.137-56.562-58.519-66.779-97.87-34.192-21.953-59.648-54.952-72.382-94.215-12.723-39.228-11.461-80.727 3.358-118.324-14.9-37.777-16.126-79.431-3.258-118.753 12.801-39.111 38.192-71.891 72.207-93.6 4.445-17.268 11.465-33.589 20.777-48.525l-117.258-203.091zM741.441 401.91c-7.406-73.082-71.97-123.94-148.461-107.771-49.027-54.728-131.076-57.981-183.311 0.199-72.067-15.245-140.131 29.571-148.024 107.859-67.414 29.976-96.194 106.304-56.601 174.302-36.917 63.565-15.25 142.307 56.586 174.558 8.23 73.973 69.933 123.839 148.064 107.623 49.355 54.742 131.605 58.202 183.737-0.025 72.058 15.248 140.15-29.564 148.041-107.858 67.385-29.941 96.154-106.291 56.623-174.339 37.97-64.865 12.992-143.249-56.654-174.546zM548.789 199.308c23.502 6.453 45.384 17.711 64.334 33.309 41.273-2.807 86.718 11.818 118.606 37.234l65.317-113.127-102.13-16.808-65.622-80.045-80.505 139.437zM206.061 156.726l65.293 113.091c33.917-26.846 77.742-39.457 118.345-37.081 19.071-15.65 41.054-26.94 64.627-33.414l-80.514-139.45-65.622 80.045-102.13 16.808z" />
<glyph unicode="&#xe935;" glyph-name="human" horiz-adv-x="1003" d="M707.266 565.551v12.779c31.871 12.986 45.441 21.354 58.773 28.747v76.025c0 146.921-118.648 266.449-264.489 266.449s-264.489-119.528-264.489-266.449v-76.025c13.452-7.461 26.986-15.795 58.773-28.747v-12.779c0-113.43 92.285-205.715 205.715-205.715s205.715 92.285 205.715 205.715zM501.551 594.938c-92.787 0-173.374 32.521-205.715 47.583v11.195h411.431v-11.237c-32.206-15.065-112.462-47.541-205.715-47.541zM413.387 870.712v-99.446h58.778v117.383c9.601 1.393 19.408 2.128 29.387 2.128s19.786-0.735 29.387-2.128v-117.383h58.778v99.446c61.062-29.362 105.614-88.226 115.482-158.223h-407.293c9.868 69.997 54.42 128.86 115.482 158.223zM501.551 418.613c-78.447 0-142.731 61.791-146.737 139.26 41.056-11.872 91.679-21.709 146.737-21.709s105.681 9.837 146.737 21.709c-4.006-77.469-68.29-139.26-146.737-139.26zM60.735 212.898v-266.449h881.634v266.449c0 81.021-65.918 146.938-146.94 146.938h-587.755c-81.022 0-146.939-65.916-146.939-146.938zM119.51 212.898c0 48.613 39.55 88.164 88.163 88.164h29.389v-295.838h-117.552v207.673zM501.551 183.511c70.961 0 130.328 50.561 143.983 117.551h61.733v-178.287h-411.431v178.287h61.733c13.655-66.99 73.022-117.551 143.983-117.551zM707.266 64v-58.776h-411.431v58.776h411.431zM883.591 212.898v-207.673h-117.551c0 69.482 0 248.414 0 295.838h29.389c48.613 0 88.162-39.551 88.162-88.164zM584.66 301.062c-12.131-34.206-44.797-58.778-83.109-58.778s-70.978 24.572-83.109 58.778h166.218z" />
<glyph unicode="&#xe936;" glyph-name="switch-on" d="M715.648 742.145c-12-12.002-18.739-28.278-18.739-45.248s6.739-33.246 18.739-45.248c40.275-40.278 67.706-91.594 78.816-147.461 11.117-55.866 5.414-113.773-16.384-166.398s-58.714-97.604-106.074-129.252c-47.364-31.642-103.045-48.538-160.006-48.538s-112.643 16.896-160.004 48.538c-47.361 31.648-84.275 76.627-106.073 129.252s-27.501 110.532-16.389 166.398c11.112 55.867 38.541 107.183 78.818 147.461 11.658 12.070 18.109 28.237 17.964 45.018s-6.877 32.833-18.743 44.699c-11.866 11.866-27.918 18.596-44.699 18.742s-32.947-6.305-45.018-17.963c-58.182-58.177-97.805-132.301-113.86-212.998s-7.818-164.342 23.667-240.359c31.485-76.013 84.805-140.986 153.217-186.701 68.412-45.709 148.842-70.112 231.121-70.112s162.707 24.403 231.123 70.112c68.41 45.715 121.728 110.688 153.216 186.701 31.482 76.017 39.718 159.662 23.667 240.359-16.058 80.697-55.68 154.821-113.862 212.998-12 11.998-28.275 18.738-45.248 18.738s-33.248-6.74-45.248-18.738zM512 454.4c16.948 0.084 33.178 6.854 45.162 18.838s18.754 28.214 18.838 45.162v281.6c0 16.974-6.743 33.252-18.745 45.255s-28.281 18.745-45.255 18.745c-16.974 0-33.252-6.743-45.255-18.745s-18.745-28.281-18.745-45.255v-281.6c0.084-16.948 6.854-33.178 18.838-45.162s28.214-18.755 45.162-18.838z" />
<glyph unicode="&#xe937;" glyph-name="paper-plane" d="M373.334 208.554v-197.888c0-13.824 8.877-26.067 22.016-30.419 3.286-1.069 6.656-1.581 9.984-1.581 9.984 0 19.629 4.694 25.773 13.056l115.754 157.526-173.526 59.306zM1010.563 954.066c-9.814 6.955-22.701 7.893-33.366 2.304l-960-501.333c-11.349-5.933-18.048-18.048-17.109-30.806 0.981-12.8 9.472-23.722 21.547-27.862l266.88-91.219 568.363 485.973-439.808-529.877 447.274-152.874c3.328-1.11 6.829-1.709 10.326-1.709 5.802 0 11.562 1.578 16.64 4.65 8.106 4.95 13.61 13.27 15.018 22.614l117.334 789.334c1.75 11.947-3.286 23.808-13.098 30.805z" />
<glyph unicode="&#xe938;" glyph-name="tji-phone-2" d="M58.201 520.771c-16.961 45.811-29.242 92.598-25.538 142.31 2.34 30.607 13.841 56.73 36.26 78.174 24.369 23.004 47.372 47.177 71.351 70.571 31.192 30.802 70.376 30.607 101.568 0 19.3-18.91 38.405-38.21 57.509-57.51 18.52-18.52 37.235-37.040 55.756-55.755 32.554-32.946 32.749-71.349 0.195-104.101-23.395-23.395-46.594-46.982-70.378-69.987-6.238-6.042-6.823-11.11-3.509-18.714 15.596-37.43 38.21-70.768 63.554-101.958 51.075-62.774 108.781-118.528 177.597-161.613 14.816-9.162 30.995-15.984 46.397-24.368 7.994-4.288 13.258-2.925 19.69 3.706 23.2 23.978 46.982 47.565 70.768 71.155 31.19 30.8 70.179 30.995 101.373 0 38.208-37.821 76.224-75.834 114.042-114.045 31.779-31.971 31.584-71.155-0.387-103.322-21.642-21.834-44.448-42.499-64.723-65.309-29.632-33.139-67.062-44.058-109.562-41.718-61.994 3.315-119.114 23.978-174.282 50.688-122.429 59.459-226.921 141.92-314.452 246.022-64.723 77.2-118.138 161.027-153.229 255.773zM992 450.979c0 262.984-214.051 477.036-477.037 477.036v-90.846c212.883 0 386.192-173.308 386.192-386.191h90.845zM730.771 450.979h90.845c0 169.018-137.632 306.652-306.653 306.652v-90.846c57.706 0 111.901-22.419 152.643-63.163 40.746-40.742 63.165-94.941 63.165-152.643z" />
<glyph unicode="&#xe93f;" glyph-name="percent" horiz-adv-x="1071" d="M621.573 361.705c-18.427-19.624-19.032-50.004 0-69.041 23.012-19.060 46.024-19.060 69.036 0 19.065 23.012 19.065 46.029 0 69.041-9.514 9.514-42.245 28.528-69.036 0zM448.983 534.296c19.065 23.012 19.065 46.025-0.002 69.037-23.011 19.065-46.023 19.065-69.034 0-19.034-19.034-18.119-49.13 0-69.037 25.97-28.53 59.816-9.221 69.037 0zM948.159 350.138l99.114 97.862-99.109 97.86c-6.288 6.205-8.727 15.32-6.386 23.834l36.901 134.306-134.763 35.193c-8.541 2.231-15.22 8.905-17.45 17.449l-35.193 134.763-134.307-36.905c-8.522-2.341-17.627 0.103-23.836 6.387l-97.857 99.113-97.86-99.113c-6.205-6.286-15.327-8.726-23.834-6.387l-134.306 36.905-35.19-134.763c-2.232-8.544-8.905-15.218-17.449-17.449l-134.765-35.193 36.905-134.306c2.339-8.516-0.103-17.631-6.387-23.836l-99.113-97.858 99.113-97.862c6.284-6.205 8.726-15.318 6.387-23.836l-36.905-134.302 134.765-35.193c8.544-2.23 15.218-8.904 17.449-17.45l35.19-134.763 134.306 36.906c8.522 2.262 16.467 0.13 23.836-6.386l97.858-99.114 97.857 99.114c6.205 6.284 15.313 8.732 23.836 6.386l134.307-36.906 35.193 134.763c2.23 8.546 8.904 15.22 17.45 17.45l134.763 35.193-36.906 134.307c-2.341 8.513 0.102 17.627 6.386 23.831zM345.424 637.849c37.667 37.667 100.407 37.665 138.072 0 38.065-38.067 38.065-100.006 0-138.074 0 0 0 0 0 0-69.024-51.882-119.631-18.439-138.072 0-38.065 38.068-38.065 100.008 0 138.074zM725.122 258.15c-37.618-37.623-100.454-37.623-138.072 0-37.665 37.669-37.665 100.408 0 138.072 38.065 38.065 100.008 38.070 138.072 0 38.070-38.065 38.070-100.008 0-138.072zM759.64 637.849l-414.219-414.217c-11.507-9.533-23.013-9.533-34.518 0-9.531 9.533-9.531 24.986 0 34.518l414.219 414.217c9.533 9.531 24.986 9.531 34.518 0s9.533-24.985 0-34.519z" />
<glyph unicode="&#xe940;" glyph-name="phone" d="M549.495 859.447c0 9.917 3.942 19.429 10.953 26.442 7.014 7.013 16.525 10.953 26.445 10.953 99.14-0.109 194.193-39.541 264.294-109.646 70.106-70.104 109.538-165.155 109.645-264.299 0-9.916-3.938-19.426-10.953-26.441-7.010-7.010-16.525-10.953-26.441-10.953s-19.43 3.942-26.441 10.953c-7.014 7.014-10.953 16.525-10.953 26.441-0.090 79.315-31.637 155.354-87.718 211.437-56.085 56.083-132.122 87.63-211.435 87.718-9.92 0-19.43 3.94-26.445 10.953-7.010 7.013-10.953 16.524-10.953 26.442zM586.893 672.476c39.667 0 77.713-15.759 105.766-43.81 28.049-28.051 43.81-66.097 43.81-105.769 0-9.916 3.938-19.426 10.953-26.441 7.010-7.010 16.525-10.953 26.441-10.953s19.43 3.942 26.441 10.953c7.014 7.014 10.953 16.525 10.953 26.441-0.060 59.489-23.714 116.523-65.779 158.587s-99.098 65.721-158.583 65.78c-9.92 0-19.43-3.94-26.445-10.953-7.010-7.013-10.953-16.524-10.953-26.442s3.942-19.429 10.953-26.441c7.014-7.013 16.525-10.953 26.445-10.953zM926.916 270.899c21.67-21.73 33.839-51.166 33.839-81.856s-12.169-60.126-33.839-81.856l-34.027-39.228c-306.261-293.205-1051.527 451.874-762.844 759.104l43.003 37.394c21.755 21.065 50.929 32.718 81.209 32.438s59.234-12.47 80.596-33.934c1.159-1.159 70.451-91.167 70.451-91.167 20.561-21.6 32.007-50.293 31.956-80.113-0.047-29.821-11.587-58.476-32.218-80.009l-43.303-54.446c23.964-58.228 59.197-111.143 103.676-155.712 44.48-44.57 97.327-79.91 155.503-103.991l54.784 43.567c21.534 20.612 50.185 32.141 79.996 32.179 29.811 0.043 58.496-11.401 80.090-31.957 0 0 89.967-69.252 91.127-70.413zM875.46 216.529c0 0-89.481 68.843-90.641 70.003-7.706 7.637-18.112 11.921-28.962 11.921s-21.257-4.284-28.962-11.921c-1.011-1.050-76.433-61.141-76.433-61.141-5.082-4.045-11.132-6.699-17.553-7.693-6.417-0.998-12.988-0.307-19.055 2.010-75.371 28.062-143.829 71.991-200.74 128.819s-100.943 125.218-129.116 200.548c-2.498 6.153-3.312 12.86-2.359 19.432s3.639 12.772 7.782 17.962c0 0 60.093 75.462 61.103 76.434 7.638 7.704 11.924 18.113 11.924 28.962s-4.286 21.258-11.924 28.962c-1.159 1.122-70.002 90.681-70.002 90.681-7.82 7.011-18.024 10.766-28.523 10.495s-20.496-4.547-27.943-11.953l-43.003-37.394c-210.978-253.683 434.859-863.693 657.165-653.615l34.069 39.266c7.983 7.394 12.774 17.604 13.367 28.467 0.593 10.867-3.059 21.534-10.193 29.756z" />
<glyph unicode="&#xe941;" glyph-name="spark" d="M829.21 565.693c-1.869 3.298-4.582 6.042-7.866 7.951-3.277 1.909-7.008 2.915-10.803 2.915h-281.094l47.126 359.637c0.506 4.813-0.625 9.656-3.21 13.75s-6.474 7.198-11.041 8.816c-4.567 1.617-9.546 1.652-14.136 0.1s-8.522-4.603-11.165-8.659l-341.843-598.164c-1.999-3.247-3.094-6.968-3.174-10.78s0.861-7.575 2.723-10.902c1.862-3.327 4.579-6.099 7.871-8.028s7.039-2.948 10.856-2.948h276.895l-37.347-360.179c-0.367-4.794 0.883-9.574 3.55-13.581s6.6-7.002 11.171-8.518c4.571-1.517 9.518-1.466 14.054 0.154 4.537 1.613 8.402 4.698 10.98 8.762l336.195 598.101c1.946 3.252 3.002 6.963 3.046 10.753s-0.915 7.525-2.79 10.823z" />
<glyph unicode="&#xe942;" glyph-name="search" d="M466.767 877.6c-211.572 0-383.917-172.344-383.917-383.917 0-211.571 172.345-384.253 383.917-384.253 90.371 0 173.479 31.672 239.169 84.255l159.913-159.836c8.074-7.736 18.852-12.001 30.029-11.889s21.868 4.603 29.778 12.503c7.91 7.895 12.411 18.58 12.544 29.757 0.128 11.177-4.127 21.965-11.848 30.044l-159.918 159.918c52.623 65.787 84.332 149.028 84.332 239.5 0 211.573-172.426 383.917-383.998 383.917zM466.767 792.265c165.456 0 298.581-133.128 298.581-298.583s-133.125-298.918-298.581-298.918c-165.455 0-298.584 133.463-298.584 298.918s133.129 298.583 298.584 298.583z" />
</font>
</defs>
</svg>
